<?xml version="1.0" encoding="UTF-8" standalone="no"?>
<svg width="26px" height="26px" viewBox="0 0 26 26" version="1.1" xmlns="http://www.w3.org/2000/svg" xmlns:xlink="http://www.w3.org/1999/xlink" xmlns:sketch="http://www.bohemiancoding.com/sketch/ns">
    <!-- Generator: Sketch 3.4.4 (17249) - http://www.bohemiancoding.com/sketch -->
    <title>help</title>
    <desc>Created with Sketch.</desc>
    <defs></defs>
    <g id="Page-1" stroke="none" stroke-width="1" fill="none" fill-rule="evenodd" sketch:type="MSPage">
        <g id="help" sketch:type="MSLayerGroup" fill="#FFFFFF">
            <g id="Iteration-2" sketch:type="MSShapeGroup">
                <g id="Chat-HB-3-Green-No-Active-Call">
                    <g id="Top-Bar">
                        <path d="M21.106233,6.1538042 C20.966495,6.3483776 20.66026,6.5912285 20.275237,6.8867459 L19.850076,7.1749486 C19.616683,7.3534294 19.476945,7.5216695 19.423428,7.6855208 C19.381804,7.815724 19.360992,7.850835 19.358019,8.1156303 L19.356532,8.1814634 L17.736164,8.1814634 L17.740624,8.0468713 C17.759949,7.4924104 17.774815,7.1661708 18.008208,6.8955237 C18.373905,6.472729 19.18409,5.9592308 19.218281,5.9372865 C19.334234,5.8524349 19.430861,5.7544168 19.503704,5.6490838 C19.67466,5.4179365 19.748989,5.2365298 19.748989,5.058049 C19.748989,4.8108092 19.67466,4.5811248 19.527489,4.3777737 C19.384777,4.1802744 19.115707,4.0807933 18.724737,4.0807933 C18.338228,4.0807933 18.073617,4.2007558 17.914553,4.4494586 C17.75103,4.7040132 17.669268,4.9717345 17.669268,5.2453076 L17.669268,5.3140666 L15.996869,5.3140666 L15.999843,5.2423816 C16.042953,4.2344039 16.408651,3.5087769 17.08653,3.0859822 C17.511691,2.816798 18.040912,2.67928 18.659328,2.67928 C19.468026,2.67928 20.150364,2.8738533 20.687018,3.2542223 C21.232592,3.6419061 21.509095,4.2197743 21.509095,4.9746604 C21.509095,5.3974551 21.37233,5.7939166 21.106233,6.1538042 L21.106233,6.1538042 L21.106233,6.1538042 Z M18.616217,11.0166752 L18.577566,11.0152122 C17.985909,10.9991197 17.568181,10.5690102 17.58602,9.9955308 C17.602372,9.4322921 18.02902,9.022664 18.601352,9.022664 L18.635543,9.022664 C19.245039,9.0402195 19.656821,9.4659401 19.640469,10.0555121 C19.62263,10.6216766 19.201928,11.0166752 18.616217,11.0166752 L18.616217,11.0166752 L18.616217,11.0166752 Z M18.637029,0.0006047 C14.794229,0.0518082 11.721475,3.1591301 11.772019,6.9408754 C11.824049,10.7211577 14.980051,13.7450911 18.822851,13.6953505 C22.665652,13.644147 25.738405,10.5382881 25.687862,6.7565427 C25.635832,2.9762604 22.478343,-0.0491359 18.637029,0.0006047 L18.637029,0.0006047 L18.637029,0.0006047 Z M20.776213,18.4104628 C19.476945,17.3878554 18.460127,16.9109312 17.571154,16.9109312 C16.463655,16.9109312 15.760504,17.6204657 15.015729,18.3724259 C14.939914,18.4499626 14.862612,18.5274994 14.782336,18.6064991 C14.737739,18.6518508 14.66341,18.7045172 14.50286,18.7045172 C14.031615,18.7045172 12.817082,18.2861114 9.964342,15.4889365 C8.726024,14.2746817 7.822185,13.2418336 7.275125,12.4181885 C6.732525,11.5989323 6.543729,10.9742494 6.772662,10.747491 C6.851451,10.6684913 6.930239,10.5924175 7.006055,10.5163437 C7.682447,9.8550869 8.320188,9.228941 8.445061,8.3175185 C8.578853,7.3490405 8.109094,6.2723038 6.924293,4.8269017 C6.007075,3.7077391 5.104723,3.162056 4.166694,3.162056 C2.892697,3.162056 1.907097,4.194904 1.116238,5.022938 C0.977987,5.1692338 0.845682,5.3067518 0.717836,5.4340291 C-0.236546,6.3834885 -0.239519,8.4199255 0.710403,10.8806201 C1.740601,13.5475918 3.760858,16.4427848 6.402505,19.0336827 C11.104546,23.643462 15.582115,25.2805115 17.987395,25.2805115 C18.959617,25.2805115 19.72669,25.0274199 20.205368,24.5504957 C20.3347,24.4217554 20.474438,24.2900892 20.621609,24.1511083 C21.474904,23.3420927 22.53632,22.3370409 22.476857,21.0364716 C22.435232,20.1396786 21.879253,19.2809225 20.776213,18.4104628 L20.776213,18.4104628 Z" id="ic_help"></path>
                    </g>
                </g>
            </g>
        </g>
    </g>
</svg>