<?xml version="1.0" encoding="UTF-8" standalone="no"?>
<svg width="18px" height="17px" viewBox="0 0 18 17" version="1.1" xmlns="http://www.w3.org/2000/svg" xmlns:xlink="http://www.w3.org/1999/xlink" xmlns:sketch="http://www.bohemiancoding.com/sketch/ns">
    <!-- Generator: sketchtool 3.5.1 (25234) - http://www.bohemiancoding.com/sketch -->
    <title>Fill 1</title>
    <desc>Created with sketchtool.</desc>
    <defs>
        <filter x="-50%" y="-50%" width="200%" height="200%" filterUnits="objectBoundingBox" id="filter-1">
            <feOffset dx="0" dy="-1" in="SourceAlpha" result="shadowOffsetOuter1"></feOffset>
            <feGaussianBlur stdDeviation="0" in="shadowOffsetOuter1" result="shadowBlurOuter1"></feGaussianBlur>
            <feColorMatrix values="0 0 0 0 0   0 0 0 0 0   0 0 0 0 0  0 0 0 0.7 0" in="shadowBlurOuter1" type="matrix" result="shadowMatrixOuter1"></feColorMatrix>
            <feMerge>
                <feMergeNode in="shadowMatrixOuter1"></feMergeNode>
                <feMergeNode in="SourceGraphic"></feMergeNode>
            </feMerge>
        </filter>
    </defs>
    <g id="Page-1" stroke="none" stroke-width="1" fill="none" fill-rule="evenodd" sketch:type="MSPage">
        <g id="TVBWEB-1857-mainWindow-Settings" sketch:type="MSArtboardGroup" transform="translate(-765.000000, -533.000000)" filter="url(#filter-1)" fill="#BFBFBF">
            <g id="Group-2" sketch:type="MSLayerGroup" transform="translate(604.000000, 524.000000)">
                <path d="M170.893261,16.3717402 L174.289348,12.9756536 L172.815157,12.2624198 C172.534374,12.1463804 172.336399,11.8657067 172.332586,11.5756626 C172.328336,11.2856186 172.516396,11.0522323 172.795,11.0015672 L177.694805,10.1110601 C177.908252,10.0720534 178.14142,10.1474518 178.314009,10.3111055 C178.486815,10.4747592 178.576051,10.7047678 178.55099,10.9222463 L177.974825,15.883612 C177.94192,16.1678813 177.722262,16.372394 177.433852,16.3854689 C177.145661,16.3982168 176.859321,16.2185464 176.728355,15.9417952 L175.940376,14.468585 L172.465187,17.9436656 C172.275928,18.1330332 171.968995,18.1331422 171.779737,17.9437746 L170.893152,17.0571899 C170.703894,16.8679313 170.703894,16.5611078 170.893261,16.3717402 Z M176.12094,25.1165027 L163.674869,25.1165027 C162.235436,25.1165027 161.064473,23.9455398 161.064473,22.5061064 L161.064473,12.6103964 C161.064473,11.1709629 162.235436,10 163.674869,10 L170.480662,10 C170.932072,10 171.297841,10.3657693 171.297841,10.8171789 C171.297841,11.2684796 170.932072,11.6343579 170.480662,11.6343579 L163.674869,11.6343579 C163.136621,11.6343579 162.698722,12.0721479 162.698722,12.6103964 L162.698722,22.5061064 C162.698722,23.0442459 163.136621,23.4821449 163.674869,23.4821449 L176.12094,23.4821449 C176.659189,23.4821449 177.097087,23.0442459 177.097087,22.5061064 L177.097087,18.2353114 C177.097087,17.7839017 177.462857,17.4181324 177.914266,17.4181324 C178.365676,17.4181324 178.731445,17.7839017 178.731445,18.2353114 L178.731445,22.5061064 C178.731445,23.9455398 177.560373,25.1165027 176.12094,25.1165027 Z" id="Fill-1" sketch:type="MSShapeGroup"></path>
            </g>
        </g>
    </g>
</svg>