<svg xmlns="http://www.w3.org/2000/svg" xmlns:xlink="http://www.w3.org/1999/xlink" version="1.1" x="0px" y="0px" viewBox="0 0 48 48" enable-background="new 0 0 48 48" xml:space="preserve"><g><circle fill="none" stroke="#000000" stroke-width="2" stroke-linecap="round" stroke-linejoin="round" stroke-miterlimit="10" cx="31.026" cy="28.277" r="11.208"></circle><path fill="none" stroke="#000000" stroke-width="2" stroke-linecap="round" stroke-linejoin="round" stroke-miterlimit="10" d="   M19.9,36.004l-6.895,6.893c-0.939,0.938-0.939,2.463,0,3.4c0.939,0.938,2.462,0.938,3.398,0l6.895-6.893L19.9,36.004z"></path><path fill="none" stroke="#000000" stroke-width="2" stroke-linecap="round" stroke-linejoin="round" stroke-miterlimit="10" d="   M12.416,42.905H5.287C2.93,42.905,1,41.021,1,38.719V5.188C1,2.884,2.93,1,5.287,1h37.425C45.07,1,47,2.884,47,5.188v33.531   c0,2.303-1.93,4.187-4.288,4.187H20.013"></path><line fill="none" stroke="#000000" stroke-width="2" stroke-linecap="round" stroke-linejoin="round" stroke-miterlimit="10" x1="12.993" y1="1.56" x2="12.993" y2="42.346"></line><line fill="none" stroke="#000000" stroke-width="2" stroke-linecap="round" stroke-linejoin="round" stroke-miterlimit="10" x1="20.796" y1="7.024" x2="39.791" y2="7.024"></line><line fill="none" stroke="#000000" stroke-width="2" stroke-linecap="round" stroke-linejoin="round" stroke-miterlimit="10" x1="20.796" y1="13.17" x2="39.791" y2="13.17"></line></g></svg>