<svg xmlns="http://www.w3.org/2000/svg" xmlns:xlink="http://www.w3.org/1999/xlink" xml:space="preserve" version="1.1" style="shape-rendering:geometricPrecision;text-rendering:geometricPrecision;image-rendering:optimizeQuality;" viewBox="0 0 100 100" x="0px" y="0px" fill-rule="evenodd" clip-rule="evenodd"><defs><style type="text/css">
   
    .fil0 {fill:black;fill-rule:nonzero}
   
  </style></defs><g><path class="fil0" d="M46 2l0 0c3,-3 5,-2 5,2l0 92c0,4 -2,5 -5,2l-27 -27 -18 0 0 -42 18 0 27 -27z"></path><path class="fil0" d="M62 76l0 0c-1,0 -3,-1 -4,-2 -2,-2 -2,-5 0,-8 9,-9 9,-23 0,-32 -2,-3 -2,-6 0,-8 2,-2 6,-2 8,0 13,13 13,35 0,48 -1,1 -2,2 -4,2z"></path><path class="fil0" d="M81 86c-1,0 -3,-1 -4,-2 -2,-2 -2,-5 0,-7 15,-15 15,-39 0,-54 -2,-2 -2,-5 0,-7 2,-2 6,-2 8,0 9,9 14,21 14,34 0,13 -5,25 -14,34 -1,1 -2,2 -4,2z"></path></g></svg>