<?xml version="1.0" encoding="UTF-8" standalone="no"?>
<svg width="30px" height="30px" viewBox="0 0 30 30" version="1.1" xmlns="http://www.w3.org/2000/svg" xmlns:xlink="http://www.w3.org/1999/xlink" xmlns:sketch="http://www.bohemiancoding.com/sketch/ns">
    <!-- Generator: sketchtool 3.4 (381) - http://www.bohemiancoding.com/sketch -->
    <title>ic_ringdown</title>
    <desc>Created with sketchtool.</desc>
    <defs></defs>
    <g id="Page-1" stroke="none" stroke-width="1" fill="none" fill-rule="evenodd" sketch:type="MSPage">
        <g id="Sidebar" sketch:type="MSArtboardGroup" transform="translate(-222.000000, -180.000000)" fill="#ffffff">
            <path d="M248.775899,190.402731 C248.775899,190.91354 248.367578,191.326742 247.861649,191.326742 L239.631772,191.326742 C239.125843,191.326742 238.717522,190.91354 238.717522,190.402731 L238.717522,188.557963 C238.717522,188.047154 239.125843,187.633952 239.631772,187.633952 L247.861649,187.633952 C248.367578,187.633952 248.775899,188.047154 248.775899,188.557963 L248.775899,190.402731 L248.775899,190.402731 Z M247.404524,195.481537 C246.648072,195.481537 246.033149,194.860107 246.033149,194.09552 C246.033149,193.330934 246.648072,192.711131 247.404524,192.711131 C248.162604,192.711131 248.775899,193.330934 248.775899,194.09552 C248.775899,194.860107 248.162604,195.481537 247.404524,195.481537 L247.404524,195.481537 Z M247.404524,199.172699 C246.648072,199.172699 246.033149,198.552896 246.033149,197.78831 C246.033149,197.023724 246.648072,196.403921 247.404524,196.403921 C248.162604,196.403921 248.775899,197.023724 248.775899,197.78831 C248.775899,198.552896 248.162604,199.172699 247.404524,199.172699 L247.404524,199.172699 Z M247.404524,202.865489 C246.648072,202.865489 246.033149,202.245686 246.033149,201.481099 C246.033149,200.716513 246.648072,200.09671 247.404524,200.09671 C248.162604,200.09671 248.775899,200.716513 248.775899,201.481099 C248.775899,202.245686 248.162604,202.865489 247.404524,202.865489 L247.404524,202.865489 Z M243.745897,195.481537 C242.989445,195.481537 242.374522,194.860107 242.374522,194.09552 C242.374522,193.330934 242.989445,192.711131 243.745897,192.711131 C244.503976,192.711131 245.118899,193.330934 245.118899,194.09552 C245.118899,194.860107 244.503976,195.481537 243.745897,195.481537 L243.745897,195.481537 Z M243.745897,199.172699 C242.989445,199.172699 242.374522,198.552896 242.374522,197.78831 C242.374522,197.023724 242.989445,196.403921 243.745897,196.403921 C244.503976,196.403921 245.118899,197.023724 245.118899,197.78831 C245.118899,198.552896 244.503976,199.172699 243.745897,199.172699 L243.745897,199.172699 Z M243.745897,202.865489 C242.989445,202.865489 242.374522,202.245686 242.374522,201.481099 C242.374522,200.716513 242.989445,200.09671 243.745897,200.09671 C244.503976,200.09671 245.118899,200.716513 245.118899,201.481099 C245.118899,202.245686 244.503976,202.865489 243.745897,202.865489 L243.745897,202.865489 Z M240.088897,195.481537 C239.332444,195.481537 238.717522,194.860107 238.717522,194.09552 C238.717522,193.330934 239.332444,192.711131 240.088897,192.711131 C240.846976,192.711131 241.460272,193.330934 241.460272,194.09552 C241.460272,194.860107 240.846976,195.481537 240.088897,195.481537 L240.088897,195.481537 Z M240.088897,199.172699 C239.332444,199.172699 238.717522,198.552896 238.717522,197.78831 C238.717522,197.023724 239.332444,196.403921 240.088897,196.403921 C240.846976,196.403921 241.460272,197.023724 241.460272,197.78831 C241.460272,198.552896 240.846976,199.172699 240.088897,199.172699 L240.088897,199.172699 Z M240.088897,202.865489 C239.332444,202.865489 238.717522,202.245686 238.717522,201.481099 C238.717522,200.716513 239.332444,200.09671 240.088897,200.09671 C240.846976,200.09671 241.460272,200.716513 241.460272,201.481099 C241.460272,202.245686 240.846976,202.865489 240.088897,202.865489 L240.088897,202.865489 Z M248.318774,183.941163 L236.700315,183.941163 C236.630364,184.586994 236.474193,185.219811 236.178119,185.745261 L234.582248,188.561217 C233.816035,189.911444 232.155093,190.890765 230.629174,190.890765 L230.162288,190.890765 C229.008901,193.50988 229.008901,196.525929 230.162288,199.148298 L230.629174,199.148298 C232.155093,199.148298 233.816035,200.127619 234.582248,201.477846 L236.176492,204.293801 C236.472566,204.819251 236.62711,205.448815 236.698688,206.096273 L248.318774,206.096273 C250.339235,206.096273 251.977401,204.443465 251.977401,202.403483 L251.977401,187.633952 C251.977401,185.595597 250.339235,183.941163 248.318774,183.941163 L248.318774,183.941163 Z M232.994511,202.393723 C232.563415,201.630763 231.497874,200.994692 230.629174,200.994692 L229.043064,200.994692 C226.939638,197.300276 226.939638,192.73716 229.044691,189.04437 L230.629174,189.04437 C231.497874,189.04437 232.563415,188.408299 232.994511,187.64534 L234.590382,184.829384 C235.019852,184.068052 235.054014,182.80079 234.666841,182.016683 L234.500909,181.678312 C234.110482,180.890951 233.080731,180.25 232.210404,180.25 L229.836932,180.25 C229.415596,180.25 228.677038,180.721766 228.673785,180.723393 C224.867121,184.48288 222.714892,189.638145 222.714892,195.016278 C222.714892,200.37977 224.854107,205.518766 228.641249,209.275 C228.662397,209.294522 229.415596,209.787436 229.836932,209.789062 L232.210404,209.789062 C233.080731,209.789062 234.108855,209.144858 234.500909,208.36075 L234.666841,208.024007 C235.054014,207.235019 235.018225,205.971011 234.588755,205.209678 L232.994511,202.393723 L232.994511,202.393723 Z" id="ic_ringdown" sketch:type="MSShapeGroup"></path>
        </g>
    </g>
</svg>