<?xml version="1.0" encoding="UTF-8" standalone="no"?>
<svg width="30px" height="30px" viewBox="0 0 30 30" version="1.1" xmlns="http://www.w3.org/2000/svg" xmlns:xlink="http://www.w3.org/1999/xlink" xmlns:sketch="http://www.bohemiancoding.com/sketch/ns">
    <!-- Generator: sketchtool 3.4 (381) - http://www.bohemiancoding.com/sketch -->
    <title>Fill 3</title>
    <desc>Created with sketchtool.</desc>
    <defs></defs>
    <g id="Page-1" stroke="none" stroke-width="1" fill="none" fill-rule="evenodd" sketch:type="MSPage">
        <g id="Sidebar" sketch:type="MSArtboardGroup" transform="translate(-121.000000, -180.000000)" fill="#7B7B7B">
            <path d="M147.775899,190.402731 C147.775899,190.91354 147.367578,191.326742 146.861649,191.326742 L138.631772,191.326742 C138.125843,191.326742 137.717522,190.91354 137.717522,190.402731 L137.717522,188.557963 C137.717522,188.047154 138.125843,187.633952 138.631772,187.633952 L146.861649,187.633952 C147.367578,187.633952 147.775899,188.047154 147.775899,188.557963 L147.775899,190.402731 L147.775899,190.402731 Z M146.404524,195.481537 C145.648072,195.481537 145.033149,194.860107 145.033149,194.09552 C145.033149,193.330934 145.648072,192.711131 146.404524,192.711131 C147.162604,192.711131 147.775899,193.330934 147.775899,194.09552 C147.775899,194.860107 147.162604,195.481537 146.404524,195.481537 L146.404524,195.481537 Z M146.404524,199.172699 C145.648072,199.172699 145.033149,198.552896 145.033149,197.78831 C145.033149,197.023724 145.648072,196.403921 146.404524,196.403921 C147.162604,196.403921 147.775899,197.023724 147.775899,197.78831 C147.775899,198.552896 147.162604,199.172699 146.404524,199.172699 L146.404524,199.172699 Z M146.404524,202.865489 C145.648072,202.865489 145.033149,202.245686 145.033149,201.481099 C145.033149,200.716513 145.648072,200.09671 146.404524,200.09671 C147.162604,200.09671 147.775899,200.716513 147.775899,201.481099 C147.775899,202.245686 147.162604,202.865489 146.404524,202.865489 L146.404524,202.865489 Z M142.745897,195.481537 C141.989445,195.481537 141.374522,194.860107 141.374522,194.09552 C141.374522,193.330934 141.989445,192.711131 142.745897,192.711131 C143.503976,192.711131 144.118899,193.330934 144.118899,194.09552 C144.118899,194.860107 143.503976,195.481537 142.745897,195.481537 L142.745897,195.481537 Z M142.745897,199.172699 C141.989445,199.172699 141.374522,198.552896 141.374522,197.78831 C141.374522,197.023724 141.989445,196.403921 142.745897,196.403921 C143.503976,196.403921 144.118899,197.023724 144.118899,197.78831 C144.118899,198.552896 143.503976,199.172699 142.745897,199.172699 L142.745897,199.172699 Z M142.745897,202.865489 C141.989445,202.865489 141.374522,202.245686 141.374522,201.481099 C141.374522,200.716513 141.989445,200.09671 142.745897,200.09671 C143.503976,200.09671 144.118899,200.716513 144.118899,201.481099 C144.118899,202.245686 143.503976,202.865489 142.745897,202.865489 L142.745897,202.865489 Z M139.088897,195.481537 C138.332444,195.481537 137.717522,194.860107 137.717522,194.09552 C137.717522,193.330934 138.332444,192.711131 139.088897,192.711131 C139.846976,192.711131 140.460272,193.330934 140.460272,194.09552 C140.460272,194.860107 139.846976,195.481537 139.088897,195.481537 L139.088897,195.481537 Z M139.088897,199.172699 C138.332444,199.172699 137.717522,198.552896 137.717522,197.78831 C137.717522,197.023724 138.332444,196.403921 139.088897,196.403921 C139.846976,196.403921 140.460272,197.023724 140.460272,197.78831 C140.460272,198.552896 139.846976,199.172699 139.088897,199.172699 L139.088897,199.172699 Z M139.088897,202.865489 C138.332444,202.865489 137.717522,202.245686 137.717522,201.481099 C137.717522,200.716513 138.332444,200.09671 139.088897,200.09671 C139.846976,200.09671 140.460272,200.716513 140.460272,201.481099 C140.460272,202.245686 139.846976,202.865489 139.088897,202.865489 L139.088897,202.865489 Z M147.318774,183.941163 L135.700315,183.941163 C135.630364,184.586994 135.474193,185.219811 135.178119,185.745261 L133.582248,188.561217 C132.816035,189.911444 131.155093,190.890765 129.629174,190.890765 L129.162288,190.890765 C128.008901,193.50988 128.008901,196.525929 129.162288,199.148298 L129.629174,199.148298 C131.155093,199.148298 132.816035,200.127619 133.582248,201.477846 L135.176492,204.293801 C135.472566,204.819251 135.62711,205.448815 135.698688,206.096273 L147.318774,206.096273 C149.339235,206.096273 150.977401,204.443465 150.977401,202.403483 L150.977401,187.633952 C150.977401,185.595597 149.339235,183.941163 147.318774,183.941163 L147.318774,183.941163 Z M131.994511,202.393723 C131.563415,201.630763 130.497874,200.994692 129.629174,200.994692 L128.043064,200.994692 C125.939638,197.300276 125.939638,192.73716 128.044691,189.04437 L129.629174,189.04437 C130.497874,189.04437 131.563415,188.408299 131.994511,187.64534 L133.590382,184.829384 C134.019852,184.068052 134.054014,182.80079 133.666841,182.016683 L133.500909,181.678312 C133.110482,180.890951 132.080731,180.25 131.210404,180.25 L128.836932,180.25 C128.415596,180.25 127.677038,180.721766 127.673785,180.723393 C123.867121,184.48288 121.714892,189.638145 121.714892,195.016278 C121.714892,200.37977 123.854107,205.518766 127.641249,209.275 C127.662397,209.294522 128.415596,209.787436 128.836932,209.789062 L131.210404,209.789062 C132.080731,209.789062 133.108855,209.144858 133.500909,208.36075 L133.666841,208.024007 C134.054014,207.235019 134.018225,205.971011 133.588755,205.209678 L131.994511,202.393723 L131.994511,202.393723 Z" id="Fill-3" sketch:type="MSShapeGroup"></path>
        </g>
    </g>
</svg>