<?xml version="1.0" encoding="UTF-8" standalone="no"?>
<svg width="32px" height="27px" viewBox="0 0 32 27" version="1.1" xmlns="http://www.w3.org/2000/svg" xmlns:xlink="http://www.w3.org/1999/xlink" xmlns:sketch="http://www.bohemiancoding.com/sketch/ns">
    <!-- Generator: sketchtool 3.4 (381) - http://www.bohemiancoding.com/sketch -->
    <title>Fill 1</title>
    <desc>Created with sketchtool.</desc>
    <defs></defs>
    <g id="Page-1" stroke="none" stroke-width="1" fill="none" fill-rule="evenodd" sketch:type="MSPage">
        <g id="Sidebar" sketch:type="MSArtboardGroup" transform="translate(-120.000000, -346.000000)" fill="#797979">
            <path d="M149.822455,360.952651 C150.899933,359.491801 151.517458,357.794941 151.517458,355.985297 C151.517458,350.46911 145.784754,346 138.713498,346 C135.600809,346 132.748729,346.866995 130.530883,348.304174 C131.574479,348.105295 132.666114,347.99692 133.788845,347.99692 C141.404525,347.99692 147.577689,352.91554 147.577689,358.980794 C147.577689,361.370136 146.621349,363.585198 144.994108,365.385559 C146.611834,366.631516 149.180099,368.22882 151.690347,368.22882 C149.903446,366.510842 149.776506,362.705903 149.822455,360.952651 M132.80396,349.994305 C125.73224,349.994305 120,354.463182 120,359.979602 C120,362.684553 121.380787,365.141658 123.622072,366.939931 C123.492116,368.773013 123.05653,371.015922 121.796648,372.223125 C124.305968,372.223125 126.870055,370.629998 128.491958,369.383808 C129.839328,369.759986 131.288807,369.9649 132.80396,369.9649 C139.875216,369.9649 145.607688,365.496718 145.607688,359.979602 C145.607688,354.463182 139.875216,349.994305 132.80396,349.994305" id="Fill-1" sketch:type="MSShapeGroup"></path>
        </g>
    </g>
</svg>