<?xml version="1.0" encoding="UTF-8" standalone="no"?>
<svg width="16px" height="18px" viewBox="0 0 16 18" version="1.1" xmlns="http://www.w3.org/2000/svg" xmlns:xlink="http://www.w3.org/1999/xlink">
    <!-- Generator: sketchtool 3.6 (26304) - http://www.bohemiancoding.com/sketch -->
    <title>ic_hide</title>
    <desc>Created with sketchtool.</desc>
    <defs></defs>
    <g id="Desktop" stroke="none" stroke-width="1" fill="none" fill-rule="evenodd">
        <g id="TVBWEB-2017---ShoutMobile-Opened" transform="translate(-152.000000, -206.000000)" fill="#FFFFFF">
            <g id="ic_hide" transform="translate(152.958507, 206.683594)">
                <path d="M10.6537167,5.57255005 C10.6607597,5.87061733 10.6446615,6.17434411 10.6027812,6.48272426 C10.2335299,9.19941253 7.94256219,11.3032393 5.2039905,11.4346655 C3.86834727,11.4988066 2.6282868,11.1041504 1.62441634,10.3967123 L1.60932432,10.3860221 C1.59272311,10.3740743 1.57788263,10.3842614 1.57637343,10.4086601 L1.57612189,10.430292 C1.5416618,14.1829213 4.69375466,17.2082412 8.49077959,16.9647567 C11.7529184,16.7556066 14.3824503,14.0824336 14.5422999,10.8174022 C14.6605206,8.40318303 13.4579387,6.26150049 11.5944522,5.05011484 C11.1887286,4.78625613 10.6421462,5.08872524 10.6537167,5.57255005 Z M1.95294433,0.230404745 L5.29217817,4.18300318 L6.19103336,2.66487235 C6.34094737,2.37397378 6.66014346,2.18670705 6.97191931,2.208842 C7.2835694,2.23047389 7.51724408,2.45345839 7.54642197,2.7570594 L8.06005351,8.09774582 C8.08256577,8.33054013 7.98056891,8.57402462 7.78927763,8.74456438 C7.59798636,8.9152299 7.34293132,8.99031267 7.11177197,8.9436532 L1.83736465,7.87702512 C1.53514708,7.81615399 1.33542943,7.56172779 1.34750304,7.25095807 C1.35982818,6.94031412 1.57853662,6.64928979 1.88741983,6.53371011 L3.54037265,5.82073822 L0.123414944,1.7760785 C-0.0627198944,1.5557351 -0.035176969,1.22622613 0.185166434,1.04009129 L1.21708288,0.168401722 C1.43742629,-0.0177331163 1.76680949,0.0100613426 1.95294433,0.230404745 Z" id="Fill-4"></path>
            </g>
        </g>
    </g>
</svg>