<?xml version="1.0" encoding="UTF-8" standalone="no"?>
<svg width="30px" height="28px" viewBox="0 0 30 28" version="1.1" xmlns="http://www.w3.org/2000/svg" xmlns:xlink="http://www.w3.org/1999/xlink" xmlns:sketch="http://www.bohemiancoding.com/sketch/ns">
    <!-- Generator: sketchtool 3.4 (381) - http://www.bohemiancoding.com/sketch -->
    <title>ic_log</title>
    <desc>Created with sketchtool.</desc>
    <defs>
        <linearGradient x1="50%" y1="3.05923151%" x2="50%" y2="100%" id="linearGradient-1">
            <stop stop-color="#3D3D3D" offset="0%"></stop>
            <stop stop-color="#0D0F0C" offset="100%"></stop>
        </linearGradient>
        <filter x="-50%" y="-50%" width="200%" height="200%" filterUnits="objectBoundingBox" id="filter-2">
            <feOffset dx="0" dy="-1" in="SourceAlpha" result="shadowOffsetOuter1"></feOffset>
            <feGaussianBlur stdDeviation="0" in="shadowOffsetOuter1" result="shadowBlurOuter1"></feGaussianBlur>
            <feColorMatrix values="0 0 0 0 0   0 0 0 0 0   0 0 0 0 0  0 0 0 0.7 0" in="shadowBlurOuter1" type="matrix" result="shadowMatrixOuter1"></feColorMatrix>
            <feMerge>
                <feMergeNode in="shadowMatrixOuter1"></feMergeNode>
                <feMergeNode in="SourceGraphic"></feMergeNode>
            </feMerge>
        </filter>
    </defs>
    <g id="Iteration-5" stroke="none" stroke-width="1" fill="none" fill-rule="evenodd" sketch:type="MSPage">
        <g id="TVBWEB--1198-PhoneDial" sketch:type="MSArtboardGroup" transform="translate(-1351.000000, -10.000000)" filter="url(#filter-2)" fill="#747474">
            <g id="Group" sketch:type="MSLayerGroup">
                <path d="M1369.70923,28.77863 C1369.70923,26.9755436 1371.17628,25.5084997 1372.97936,25.5084997 C1374.7826,25.5084997 1376.24949,26.9755436 1376.24949,28.77863 C1376.24949,30.5818715 1374.7826,32.0489154 1372.97936,32.0489154 C1371.17628,32.0489154 1369.70923,30.5818715 1369.70923,28.77863 M1380.116,34.9978971 L1377.77285,32.2253144 C1378.47286,31.2544217 1378.88694,30.0643103 1378.88694,28.77863 C1378.88694,25.5212215 1376.23693,22.8710476 1372.97936,22.8710476 C1369.72195,22.8710476 1367.07178,25.5212215 1367.07178,28.77863 C1367.07178,32.0361936 1369.72195,34.6863674 1372.97936,34.6863674 C1373.99819,34.6863674 1374.95761,34.4271214 1375.79507,33.9711525 L1378.10145,36.7002948 C1378.36225,37.0088767 1378.73459,37.1677444 1379.10942,37.1677444 C1379.41009,37.1677444 1379.71231,37.0655044 1379.95992,36.8562148 C1380.51627,36.3861277 1380.58608,35.5540892 1380.116,34.9978971 M1364.39888,29.5291868 L1361.5993,29.5291868 L1361.5993,13.6374521 L1373.51484,13.6374521 L1373.51484,20.4172553 C1373.51484,21.1455024 1374.10532,21.7359813 1374.83357,21.7359813 C1375.56197,21.7359813 1376.15229,21.1455024 1376.15229,20.4172553 L1376.15229,13.0978604 C1376.15229,11.941105 1375.21134,11 1374.05474,11 L1353.09755,11 C1351.94095,11 1351,11.941105 1351,13.0978604 L1351,30.0690887 C1351,31.2258442 1351.94095,32.1666388 1353.09755,32.1666388 L1364.39888,32.1666388 C1365.12712,32.1666388 1365.7176,31.5761599 1365.7176,30.8479128 C1365.7176,30.1196657 1365.12712,29.5291868 1364.39888,29.5291868 M1364.14554,19.1458948 C1363.41729,19.1458948 1362.82682,19.7363738 1362.82682,20.4646209 C1362.82682,21.1928679 1363.41729,21.7833469 1364.14554,21.7833469 L1368.81182,21.7833469 C1369.54006,21.7833469 1370.13054,21.1928679 1370.13054,20.4646209 C1370.13054,19.7363738 1369.54006,19.1458948 1368.81182,19.1458948 L1364.14554,19.1458948 Z M1372.07594,16.6687378 C1372.07594,15.9404907 1371.48546,15.3500117 1370.75722,15.3500117 L1364.14559,15.3500117 C1363.41719,15.3500117 1362.82686,15.9404907 1362.82686,16.6687378 C1362.82686,17.3969848 1363.41719,17.9874638 1364.14559,17.9874638 L1370.75722,17.9874638 C1371.48546,17.9874638 1372.07594,17.3969848 1372.07594,16.6687378" id="ic_log" sketch:type="MSShapeGroup"></path>
            </g>
        </g>
    </g>
</svg>