<?xml version="1.0" encoding="UTF-8" standalone="no"?>
<svg width="50px" height="50px" viewBox="0 0 50 50" version="1.1" xmlns="http://www.w3.org/2000/svg" xmlns:xlink="http://www.w3.org/1999/xlink" xmlns:sketch="http://www.bohemiancoding.com/sketch/ns">
    <!-- Generator: sketchtool 3.4 (381) - http://www.bohemiancoding.com/sketch -->
    <title>ic_ringdown</title>
    <desc>Created with sketchtool.</desc>
    <defs>
        <filter x="-50%" y="-50%" width="200%" height="200%" filterUnits="objectBoundingBox" id="filter-1">
            <feMorphology radius="3" in="SourceAlpha" operator="dilate" result="shadowSpreadOuter1"></feMorphology>
            <feOffset dx="0" dy="0" in="shadowSpreadOuter1" result="shadowOffsetOuter1"></feOffset>
            <feGaussianBlur stdDeviation="3.5" in="shadowOffsetOuter1" result="shadowBlurOuter1"></feGaussianBlur>
            <feColorMatrix values="0 0 0 0 0.383637313   0 0 0 0 0.965215774   0 0 0 0 0.180178181  0 0 0 0.7 0" in="shadowBlurOuter1" type="matrix" result="shadowMatrixOuter1"></feColorMatrix>
            <feOffset dx="0" dy="1" in="SourceAlpha" result="shadowOffsetInner1"></feOffset>
            <feGaussianBlur stdDeviation="0" in="shadowOffsetInner1" result="shadowBlurInner1"></feGaussianBlur>
            <feComposite in="shadowBlurInner1" in2="SourceAlpha" operator="arithmetic" k2="-1" k3="1" result="shadowInnerInner1"></feComposite>
            <feColorMatrix values="0 0 0 0 0.14290391   0 0 0 0 0.373883929   0 0 0 0 0.120858747  0 0 0 0.7 0" in="shadowInnerInner1" type="matrix" result="shadowMatrixInner1"></feColorMatrix>
            <feMerge>
                <feMergeNode in="shadowMatrixOuter1"></feMergeNode>
                <feMergeNode in="SourceGraphic"></feMergeNode>
                <feMergeNode in="shadowMatrixInner1"></feMergeNode>
            </feMerge>
        </filter>
    </defs>
    <g id="Iteration-5" stroke="none" stroke-width="1" fill="none" fill-rule="evenodd" sketch:type="MSPage">
        <g id="TVBWEB--1156-mainWindow" sketch:type="MSArtboardGroup" transform="translate(-1643.000000, -1.000000)" filter="url(#filter-1)" fill="#FFFFFF">
            <path d="M1679.06101,21.152731 C1679.06101,21.6635397 1678.65269,22.0767417 1678.14676,22.0767417 L1669.91688,22.0767417 C1669.41095,22.0767417 1669.00263,21.6635397 1669.00263,21.152731 L1669.00263,19.307963 C1669.00263,18.7971542 1669.41095,18.3839522 1669.91688,18.3839522 L1678.14676,18.3839522 C1678.65269,18.3839522 1679.06101,18.7971542 1679.06101,19.307963 L1679.06101,21.152731 L1679.06101,21.152731 Z M1677.68963,26.2315366 C1676.93318,26.2315366 1676.31826,25.6101069 1676.31826,24.8455205 C1676.31826,24.0809341 1676.93318,23.4611311 1677.68963,23.4611311 C1678.44771,23.4611311 1679.06101,24.0809341 1679.06101,24.8455205 C1679.06101,25.6101069 1678.44771,26.2315366 1677.68963,26.2315366 L1677.68963,26.2315366 Z M1677.68963,29.9226994 C1676.93318,29.9226994 1676.31826,29.3028964 1676.31826,28.53831 C1676.31826,27.7737236 1676.93318,27.1539206 1677.68963,27.1539206 C1678.44771,27.1539206 1679.06101,27.7737236 1679.06101,28.53831 C1679.06101,29.3028964 1678.44771,29.9226994 1677.68963,29.9226994 L1677.68963,29.9226994 Z M1677.68963,33.6154889 C1676.93318,33.6154889 1676.31826,32.9956859 1676.31826,32.2310995 C1676.31826,31.4665131 1676.93318,30.8467101 1677.68963,30.8467101 C1678.44771,30.8467101 1679.06101,31.4665131 1679.06101,32.2310995 C1679.06101,32.9956859 1678.44771,33.6154889 1677.68963,33.6154889 L1677.68963,33.6154889 Z M1674.03101,26.2315366 C1673.27455,26.2315366 1672.65963,25.6101069 1672.65963,24.8455205 C1672.65963,24.0809341 1673.27455,23.4611311 1674.03101,23.4611311 C1674.78908,23.4611311 1675.40401,24.0809341 1675.40401,24.8455205 C1675.40401,25.6101069 1674.78908,26.2315366 1674.03101,26.2315366 L1674.03101,26.2315366 Z M1674.03101,29.9226994 C1673.27455,29.9226994 1672.65963,29.3028964 1672.65963,28.53831 C1672.65963,27.7737236 1673.27455,27.1539206 1674.03101,27.1539206 C1674.78908,27.1539206 1675.40401,27.7737236 1675.40401,28.53831 C1675.40401,29.3028964 1674.78908,29.9226994 1674.03101,29.9226994 L1674.03101,29.9226994 Z M1674.03101,33.6154889 C1673.27455,33.6154889 1672.65963,32.9956859 1672.65963,32.2310995 C1672.65963,31.4665131 1673.27455,30.8467101 1674.03101,30.8467101 C1674.78908,30.8467101 1675.40401,31.4665131 1675.40401,32.2310995 C1675.40401,32.9956859 1674.78908,33.6154889 1674.03101,33.6154889 L1674.03101,33.6154889 Z M1670.37401,26.2315366 C1669.61755,26.2315366 1669.00263,25.6101069 1669.00263,24.8455205 C1669.00263,24.0809341 1669.61755,23.4611311 1670.37401,23.4611311 C1671.13208,23.4611311 1671.74538,24.0809341 1671.74538,24.8455205 C1671.74538,25.6101069 1671.13208,26.2315366 1670.37401,26.2315366 L1670.37401,26.2315366 Z M1670.37401,29.9226994 C1669.61755,29.9226994 1669.00263,29.3028964 1669.00263,28.53831 C1669.00263,27.7737236 1669.61755,27.1539206 1670.37401,27.1539206 C1671.13208,27.1539206 1671.74538,27.7737236 1671.74538,28.53831 C1671.74538,29.3028964 1671.13208,29.9226994 1670.37401,29.9226994 L1670.37401,29.9226994 Z M1670.37401,33.6154889 C1669.61755,33.6154889 1669.00263,32.9956859 1669.00263,32.2310995 C1669.00263,31.4665131 1669.61755,30.8467101 1670.37401,30.8467101 C1671.13208,30.8467101 1671.74538,31.4665131 1671.74538,32.2310995 C1671.74538,32.9956859 1671.13208,33.6154889 1670.37401,33.6154889 L1670.37401,33.6154889 Z M1678.60388,14.6911627 L1666.98542,14.6911627 C1666.91547,15.3369942 1666.7593,15.9698114 1666.46323,16.4952612 L1664.86736,19.3112166 C1664.10114,20.6614436 1662.4402,21.6407648 1660.91428,21.6407648 L1660.4474,21.6407648 C1659.29401,24.2598799 1659.29401,27.2759291 1660.4474,29.8982977 L1660.91428,29.8982977 C1662.4402,29.8982977 1664.10114,30.8776189 1664.86736,32.2278459 L1666.4616,35.0438013 C1666.75767,35.5692511 1666.91222,36.1988147 1666.9838,36.846273 L1678.60388,36.846273 C1680.62434,36.846273 1682.26251,35.193465 1682.26251,33.1534835 L1682.26251,18.3839522 C1682.26251,16.3455975 1680.62434,14.6911627 1678.60388,14.6911627 L1678.60388,14.6911627 Z M1663.27962,33.1437228 C1662.84852,32.3807632 1661.78298,31.7446924 1660.91428,31.7446924 L1659.32817,31.7446924 C1657.22475,28.0502761 1657.22475,23.4871596 1659.3298,19.7943701 L1660.91428,19.7943701 C1661.78298,19.7943701 1662.84852,19.1582993 1663.27962,18.3953397 L1664.87549,15.5793843 C1665.30496,14.8180515 1665.33912,13.5507903 1664.95195,12.7666826 L1664.78602,12.4283124 C1664.39559,11.6409511 1663.36584,11 1662.49551,11 L1660.12204,11 C1659.7007,11 1658.96215,11.4717661 1658.95889,11.4733928 C1655.15223,15.2328803 1653,20.3881446 1653,25.7662777 C1653,31.1297698 1655.13922,36.2687663 1658.92636,40.0250002 C1658.94751,40.0445215 1659.7007,40.5374357 1660.12204,40.5390625 L1662.49551,40.5390625 C1663.36584,40.5390625 1664.39396,39.8948578 1664.78602,39.1107501 L1664.95195,38.7740067 C1665.33912,37.9850187 1665.30333,36.721011 1664.87386,35.9596782 L1663.27962,33.1437228 L1663.27962,33.1437228 Z" id="ic_ringdown" sketch:type="MSShapeGroup"></path>
        </g>
    </g>
</svg>