<?xml version="1.0" encoding="UTF-8" standalone="no"?>
<svg width="32px" height="27px" viewBox="0 0 32 27" version="1.1" xmlns="http://www.w3.org/2000/svg" xmlns:xlink="http://www.w3.org/1999/xlink" xmlns:sketch="http://www.bohemiancoding.com/sketch/ns">
    <!-- Generator: sketchtool 3.4 (381) - http://www.bohemiancoding.com/sketch -->
    <title>ic_ptt</title>
    <desc>Created with sketchtool.</desc>
    <defs>
        <linearGradient x1="50%" y1="3.05923151%" x2="50%" y2="100%" id="linearGradient-1">
            <stop stop-color="#3D3D3D" offset="0%"></stop>
            <stop stop-color="#0D0F0C" offset="100%"></stop>
        </linearGradient>
        <filter x="-50%" y="-50%" width="200%" height="200%" filterUnits="objectBoundingBox" id="filter-2">
            <feOffset dx="0" dy="-1" in="SourceAlpha" result="shadowOffsetOuter1"></feOffset>
            <feGaussianBlur stdDeviation="0" in="shadowOffsetOuter1" result="shadowBlurOuter1"></feGaussianBlur>
            <feColorMatrix values="0 0 0 0 0   0 0 0 0 0   0 0 0 0 0  0 0 0 0.7 0" in="shadowBlurOuter1" type="matrix" result="shadowMatrixOuter1"></feColorMatrix>
            <feMerge>
                <feMergeNode in="shadowMatrixOuter1"></feMergeNode>
                <feMergeNode in="SourceGraphic"></feMergeNode>
            </feMerge>
        </filter>
    </defs>
    <g id="Iteration-5" stroke="none" stroke-width="1" fill="none" fill-rule="evenodd" sketch:type="MSPage">
        <g id="TVBWEB--1198-PhoneDial" sketch:type="MSArtboardGroup" transform="translate(-1452.000000, -10.000000)" filter="url(#filter-2)" fill="#747474">
            <g id="Group" sketch:type="MSLayerGroup">
                <path d="M1471.30695,25.8111527 L1471.30695,22.018061 C1471.9148,22.4444515 1472.29609,23.1474984 1472.29609,23.9146926 C1472.29609,24.6817152 1471.9148,25.3847622 1471.30695,25.8111527 M1471.61019,19.3050099 C1471.50985,19.2695059 1471.40814,19.2487524 1471.30695,19.2388044 L1471.30695,13.1914688 C1471.30695,11.9831337 1470.32364,11 1469.11479,11 C1468.70504,11 1468.30318,11.1162883 1467.95397,11.3356582 L1458.27288,17.4032328 C1458.13292,17.4910493 1457.97118,17.5375303 1457.80498,17.5375303 L1454.18975,17.5375303 C1452.98228,17.5375303 1452,18.5201495 1452,19.7277985 L1452,28.0890659 C1452,29.296715 1452.98228,30.2791626 1454.18975,30.2791626 L1457.78526,30.2791626 C1457.95129,30.2791626 1458.11371,30.3258151 1458.25418,30.4138032 L1467.95294,36.4925264 C1468.30335,36.7127538 1468.70521,36.8290421 1469.11479,36.8290421 C1470.32364,36.8290421 1471.30695,35.8459084 1471.30695,34.6374018 L1471.30695,28.5912668 C1471.40814,28.5811473 1471.50985,28.5595362 1471.61002,28.5242038 C1473.55913,27.8352212 1474.86884,25.9828409 1474.86884,23.9146926 C1474.86884,21.8465443 1473.55913,19.994164 1471.61019,19.3050099 M1482.66089,22.5902235 L1476.99021,22.5902235 C1476.27978,22.5902235 1475.70383,23.1661766 1475.70383,23.8765987 C1475.70383,24.5870209 1476.27978,25.1629739 1476.99021,25.1629739 L1482.66089,25.1629739 C1483.37131,25.1629739 1483.94727,24.5870209 1483.94727,23.8765987 C1483.94727,23.1661766 1483.37131,22.5902235 1482.66089,22.5902235 M1477.27084,27.3671521 C1476.76847,26.8647797 1475.95394,26.8647797 1475.45173,27.3671521 C1474.94919,27.8695245 1474.94919,28.6840573 1475.45173,29.1862582 L1479.40725,33.1417762 C1479.65835,33.3930482 1479.98749,33.5185984 1480.31681,33.5185984 C1480.64595,33.5185984 1480.97526,33.3930482 1481.22636,33.1417762 C1481.72873,32.6395753 1481.72873,31.8250426 1481.22636,31.3226702 L1477.27084,27.3671521 Z M1476.36125,20.7628332 C1476.69039,20.7628332 1477.01971,20.637283 1477.27081,20.386011 L1481.2265,16.430493 C1481.72887,15.9282921 1481.72887,15.1135878 1481.2265,14.6113869 C1480.72412,14.108843 1479.90959,14.1090145 1479.40722,14.6113869 L1475.4517,18.5669049 C1474.94933,19.0691058 1474.94933,19.8838101 1475.4517,20.386011 C1475.7028,20.637283 1476.03211,20.7628332 1476.36125,20.7628332" id="ic_ptt" sketch:type="MSShapeGroup"></path>
            </g>
        </g>
    </g>
</svg>