<?xml version="1.0" encoding="UTF-8" standalone="no"?>
<svg width="29px" height="30px" viewBox="0 0 29 30" version="1.1" xmlns="http://www.w3.org/2000/svg" xmlns:xlink="http://www.w3.org/1999/xlink" xmlns:sketch="http://www.bohemiancoding.com/sketch/ns">
    <!-- Generator: sketchtool 3.4 (381) - http://www.bohemiancoding.com/sketch -->
    <title>ic_ring</title>
    <desc>Created with sketchtool.</desc>
    <defs>
        <linearGradient x1="50%" y1="3.05923151%" x2="50%" y2="100%" id="linearGradient-1">
            <stop stop-color="#3D3D3D" offset="0%"></stop>
            <stop stop-color="#0D0F0C" offset="100%"></stop>
        </linearGradient>
        <filter x="-50%" y="-50%" width="200%" height="200%" filterUnits="objectBoundingBox" id="filter-2">
            <feOffset dx="0" dy="-1" in="SourceAlpha" result="shadowOffsetOuter1"></feOffset>
            <feGaussianBlur stdDeviation="0" in="shadowOffsetOuter1" result="shadowBlurOuter1"></feGaussianBlur>
            <feColorMatrix values="0 0 0 0 0   0 0 0 0 0   0 0 0 0 0  0 0 0 0.7 0" in="shadowBlurOuter1" type="matrix" result="shadowMatrixOuter1"></feColorMatrix>
            <feMerge>
                <feMergeNode in="shadowMatrixOuter1"></feMergeNode>
                <feMergeNode in="SourceGraphic"></feMergeNode>
            </feMerge>
        </filter>
    </defs>
    <g id="Iteration-5" stroke="none" stroke-width="1" fill="none" fill-rule="evenodd" sketch:type="MSPage">
        <g id="TVBWEB--1198-PhoneDial" sketch:type="MSArtboardGroup" transform="translate(-1551.000000, -10.000000)" filter="url(#filter-2)" fill="#747474">
            <g id="Group" sketch:type="MSLayerGroup">
                <path d="M1574.13208,25.2262242 L1574.11295,25.2262242 C1573.37248,25.2156766 1572.78074,24.6071351 1572.79111,23.8666596 C1572.81149,22.4064462 1572.42999,20.96411 1571.68791,19.6957194 C1570.91364,18.3724456 1569.78791,17.3037439 1568.43264,16.6052799 C1567.7744,16.2659697 1567.51571,15.4573819 1567.85485,14.7991417 C1568.19416,14.1409015 1569.00274,13.8823965 1569.66098,14.2215279 C1571.46945,15.1534687 1572.9706,16.5781064 1574.00229,18.341518 C1574.99144,20.0318116 1575.49969,21.9554032 1575.47252,23.9042018 C1575.46215,24.6382415 1574.8638,25.2262242 1574.13208,25.2262242 M1577.74348,25.3424084 C1577.71184,25.3424084 1577.68002,25.3413357 1577.64784,25.3390117 C1576.90915,25.2869889 1576.35263,24.6459109 1576.40466,23.9074018 C1576.55429,21.7819761 1576.06231,19.6822935 1574.98163,17.8352165 C1573.87592,15.9450553 1572.24266,14.4667858 1570.259,13.5604094 C1569.58538,13.252742 1569.28898,12.4572046 1569.59664,11.7837687 C1569.90449,11.1101541 1570.70003,10.8141069 1571.37328,11.1214168 C1573.86198,12.2584096 1575.91017,14.1117437 1577.29637,16.4811939 C1578.65075,18.7962972 1579.26734,21.4294368 1579.07963,24.0956492 C1579.02975,24.8023368 1578.44105,25.3424084 1577.74348,25.3424084 M1575.13696,34.9683757 C1575.17022,33.4413014 1572.01524,31.8477236 1571.51718,31.3498424 L1571.51718,24.0224956 C1571.51718,19.1291358 1567.16282,16.6311482 1565.50667,15.8583149 C1565.50739,15.8352532 1565.50846,15.8125491 1565.50846,15.7894875 C1565.50846,14.4613869 1564.41312,13.3991209 1563.08484,13.3991209 C1561.7571,13.3991209 1560.6614,14.428314 1560.6614,15.7894875 C1560.6614,15.8082586 1560.66247,15.8270297 1560.66283,15.8458008 C1559.03278,16.6079078 1554.61961,19.1234151 1554.61961,24.0224956 L1554.61961,31.3498424 C1554.12137,31.8477236 1551,33.4413014 1551,34.9683757 L1551,35.7319129 C1551,35.9702166 1551.19325,36.1634696 1551.43156,36.1634696 L1558.96199,36.1634696 C1559.36798,38.0670387 1561.06292,39.4999 1563.08484,39.4999 C1565.10729,39.4999 1566.80206,38.0670387 1567.20823,36.1634696 L1574.70541,36.1634696 C1574.94353,36.1634696 1575.13696,35.9702166 1575.13696,35.7319129 L1575.13696,34.9683757 Z" id="ic_ring" sketch:type="MSShapeGroup"></path>
            </g>
        </g>
    </g>
</svg>