<?xml version="1.0" encoding="UTF-8" standalone="no"?>
<svg width="48px" height="48px" viewBox="0 0 48 48" version="1.1" xmlns="http://www.w3.org/2000/svg" xmlns:xlink="http://www.w3.org/1999/xlink" xmlns:sketch="http://www.bohemiancoding.com/sketch/ns">
    <!-- Generator: sketchtool 3.4 (381) - http://www.bohemiancoding.com/sketch -->
    <title>ic_settings</title>
    <desc>Created with sketchtool.</desc>
    <defs>
        <filter x="-50%" y="-50%" width="200%" height="200%" filterUnits="objectBoundingBox" id="filter-1">
            <feMorphology radius="3" in="SourceAlpha" operator="dilate" result="shadowSpreadOuter1"></feMorphology>
            <feOffset dx="0" dy="0" in="shadowSpreadOuter1" result="shadowOffsetOuter1"></feOffset>
            <feGaussianBlur stdDeviation="3.5" in="shadowOffsetOuter1" result="shadowBlurOuter1"></feGaussianBlur>
            <feColorMatrix values="0 0 0 0 0.383637313   0 0 0 0 0.965215774   0 0 0 0 0.180178181  0 0 0 0.7 0" in="shadowBlurOuter1" type="matrix" result="shadowMatrixOuter1"></feColorMatrix>
            <feOffset dx="0" dy="1" in="SourceAlpha" result="shadowOffsetInner1"></feOffset>
            <feGaussianBlur stdDeviation="0" in="shadowOffsetInner1" result="shadowBlurInner1"></feGaussianBlur>
            <feComposite in="shadowBlurInner1" in2="SourceAlpha" operator="arithmetic" k2="-1" k3="1" result="shadowInnerInner1"></feComposite>
            <feColorMatrix values="0 0 0 0 0.14290391   0 0 0 0 0.373883929   0 0 0 0 0.120858747  0 0 0 0.7 0" in="shadowInnerInner1" type="matrix" result="shadowMatrixInner1"></feColorMatrix>
            <feMerge>
                <feMergeNode in="shadowMatrixOuter1"></feMergeNode>
                <feMergeNode in="SourceGraphic"></feMergeNode>
                <feMergeNode in="shadowMatrixInner1"></feMergeNode>
            </feMerge>
        </filter>
    </defs>
    <g id="Iteration-5" stroke="none" stroke-width="1" fill="none" fill-rule="evenodd" sketch:type="MSPage">
        <g id="TVBWEB--1156-mainWindow" sketch:type="MSArtboardGroup" transform="translate(-1745.000000, -1.000000)" filter="url(#filter-1)" fill="#FFFFFF">
            <g id="Top-Bar" sketch:type="MSLayerGroup">
                <path d="M1773.2619,24.6964286 C1773.2619,23.4361606 1772.81606,22.3601933 1771.92436,21.4684942 C1771.03266,20.5767952 1769.9567,20.1309524 1768.69643,20.1309524 C1767.43616,20.1309524 1766.36019,20.5767952 1765.46849,21.4684942 C1764.5768,22.3601933 1764.13095,23.4361606 1764.13095,24.6964286 C1764.13095,25.9566965 1764.5768,27.0326639 1765.46849,27.9243629 C1766.36019,28.8160619 1767.43616,29.2619048 1768.69643,29.2619048 C1769.9567,29.2619048 1771.03266,28.8160619 1771.92436,27.9243629 C1772.81606,27.0326639 1773.2619,25.9566965 1773.2619,24.6964286 L1773.2619,24.6964286 Z M1782.39286,22.7525344 L1782.39286,26.7116583 C1782.39286,26.8543301 1782.3453,26.9910553 1782.25019,27.1218378 C1782.15507,27.2526203 1782.03618,27.3298997 1781.89351,27.3536784 L1778.59424,27.8530273 C1778.36834,28.4950506 1778.1365,29.0360066 1777.89872,29.4759115 C1778.31484,30.0703775 1778.95091,30.8907283 1779.80694,31.9369885 C1779.92584,32.0796603 1779.98528,32.2282746 1779.98528,32.3828358 C1779.98528,32.5373969 1779.93178,32.674122 1779.82478,32.7930153 C1779.50377,33.2329201 1778.91525,33.8749338 1778.05922,34.7190755 C1777.20319,35.5632173 1776.6444,35.9852818 1776.38284,35.9852818 C1776.24016,35.9852818 1776.08561,35.9317807 1775.91915,35.8247768 L1773.45808,33.8987165 C1772.93495,34.1721709 1772.39399,34.3980646 1771.83519,34.5764044 C1771.64496,36.193352 1771.47257,37.2990422 1771.31801,37.8935082 C1771.23479,38.2264092 1771.02078,38.3928571 1770.67599,38.3928571 L1766.71687,38.3928571 C1766.55042,38.3928571 1766.40477,38.3423283 1766.27994,38.2412691 C1766.1551,38.1402098 1766.08674,38.0124016 1766.07485,37.8578404 L1765.5755,34.5764044 C1764.99292,34.3861753 1764.45791,34.1662261 1763.97045,33.9165504 L1761.45587,35.8247768 C1761.33698,35.9317807 1761.18836,35.9852818 1761.01002,35.9852818 C1760.84357,35.9852818 1760.69496,35.9198915 1760.56417,35.789109 C1759.06612,34.4337265 1758.08527,33.4350386 1757.62158,32.7930153 C1757.53836,32.674122 1757.49674,32.5373969 1757.49674,32.3828358 C1757.49674,32.2401639 1757.5443,32.1034388 1757.63942,31.9726563 C1757.81776,31.7229805 1758.12093,31.3276666 1758.54894,30.7867025 C1758.97696,30.2457384 1759.29797,29.8266461 1759.51197,29.5294131 C1759.19096,28.9349471 1758.94724,28.3464346 1758.78078,27.7638579 L1755.51718,27.2823428 C1755.36262,27.2585642 1755.23779,27.184257 1755.14267,27.0594192 C1755.04756,26.9345813 1755,26.7948839 1755,26.6403227 L1755,22.6811988 C1755,22.538527 1755.04756,22.4018019 1755.14267,22.2710193 C1755.23779,22.1402368 1755.35073,22.0629574 1755.48152,22.0391788 L1758.79862,21.5398298 C1758.96507,20.9929211 1759.19691,20.4460205 1759.49414,19.8991118 C1759.01857,19.2214205 1758.3825,18.4010697 1757.58591,17.4380348 C1757.46702,17.2953629 1757.40758,17.1526932 1757.40758,17.0100214 C1757.40758,16.8911282 1757.46108,16.7544031 1757.56808,16.5998419 C1757.8772,16.1718264 1758.46274,15.532785 1759.32472,14.6826986 C1760.18669,13.8326122 1760.74846,13.4075753 1761.01002,13.4075753 C1761.16458,13.4075753 1761.31914,13.467021 1761.4737,13.5859142 L1763.93478,15.4941406 C1764.45791,15.2206863 1764.99887,14.9947926 1765.55766,14.8164528 C1765.74789,13.1995052 1765.92029,12.093815 1766.07485,11.499349 C1766.15807,11.166448 1766.37208,11 1766.71687,11 L1770.67599,11 C1770.84244,11 1770.98808,11.0505289 1771.11292,11.1515881 C1771.23776,11.2526473 1771.30612,11.3804556 1771.31801,11.5350167 L1771.81736,14.8164528 C1772.39994,15.0066819 1772.93495,15.226631 1773.42241,15.4763067 L1775.95482,13.5680804 C1776.06183,13.4610765 1776.2045,13.4075753 1776.38284,13.4075753 C1776.5374,13.4075753 1776.68601,13.467021 1776.82868,13.5859142 C1778.36241,15.0007434 1779.34326,16.0113204 1779.77128,16.6176758 C1779.8545,16.7127903 1779.89611,16.8435709 1779.89611,17.0100214 C1779.89611,17.1526932 1779.84856,17.2894184 1779.75344,17.4202009 C1779.5751,17.6698766 1779.27193,18.0651906 1778.84391,18.6061547 C1778.4159,19.1471187 1778.09489,19.566211 1777.88088,19.863444 C1778.19,20.45791 1778.43373,21.040478 1778.61207,21.6111654 L1781.87567,22.1105143 C1782.03024,22.134293 1782.15507,22.2086001 1782.25019,22.333438 C1782.3453,22.4582758 1782.39286,22.5979732 1782.39286,22.7525344 L1782.39286,22.7525344 Z" id="ic_settings" sketch:type="MSShapeGroup"></path>
            </g>
        </g>
    </g>
</svg>