<?xml version="1.0" encoding="UTF-8" standalone="no"?>
<svg width="152px" height="62px" viewBox="0 0 152 62" version="1.1" xmlns="http://www.w3.org/2000/svg" xmlns:xlink="http://www.w3.org/1999/xlink" xmlns:sketch="http://www.bohemiancoding.com/sketch/ns">
    <!-- Generator: sketchtool 3.5.1 (25234) - http://www.bohemiancoding.com/sketch -->
    <title>ic_logo</title>
    <desc>Created with sketchtool.</desc>
    <defs>
        <path id="path-1" d="M0,0.0636840631 L151.578596,0.0636840631 L151.578596,61.0524902 L0,61.0524902"></path>
    </defs>
    <g id="Page-1" stroke="none" stroke-width="1" fill="none" fill-rule="evenodd" sketch:type="MSPage">
        <g id="TVBWEB--1703-mysymphonyAppLogin" sketch:type="MSArtboardGroup" transform="translate(-928.000000, -345.000000)">
            <g id="ic_logo" sketch:type="MSLayerGroup" transform="translate(928.000000, 345.466797)">
                <g id="Group-3">
                    <mask id="mask-2" sketch:name="Clip 2" fill="white">
                        <use xlink:href="#path-1"></use>
                    </mask>
                    <g id="Clip-2"></g>
                    <path d="M19.8466383,61.0524902 C16.7271718,61.0524902 13.906652,60.5624914 11.4634998,59.5967041 C9.02666331,58.6330222 6.93140501,57.2656569 5.23561946,55.532503 C3.5393076,53.7988228 2.22983694,51.6946172 1.34352321,49.2793596 C0.451946322,46.8525231 -0.000157894372,44.1362136 -0.000157894372,41.2062204 C-0.000157894372,38.3578059 0.480367309,35.6841279 1.42773354,33.259923 C2.37246819,30.8394023 3.73351767,28.7020388 5.4719347,26.9067798 C7.20982541,25.1125734 9.29929426,23.684682 11.6824466,22.6631054 C14.0634938,21.6425815 16.750856,21.1252143 19.6708492,21.1252143 C23.1245254,21.1252143 26.1882025,21.7667917 28.7776702,23.0325783 C31.1187174,24.1783651 33.1213444,25.7536246 34.7366038,27.7178306 C34.8550246,27.8620408 34.8397614,28.0757245 34.7044986,28.2046715 L29.8987203,32.774661 C29.8013521,32.8678186 29.6466156,32.8609766 29.5560895,32.7609768 C28.4166184,31.5125586 27.1671476,30.4609821 25.8360981,29.6304577 C24.2539965,28.6451968 22.2982115,28.145198 20.0224273,28.145198 C18.1566422,28.145198 16.4650671,28.4973024 14.9945442,29.1915114 C13.5261266,29.885194 12.2656032,30.8362444 11.2471845,32.0183469 C10.2298184,33.1993968 9.44718865,34.5988673 8.92087408,36.1788636 C8.3977174,37.7462284 8.13245486,39.4378034 8.13245486,41.2062204 C8.13245486,43.1362159 8.43982257,44.9141065 9.04666327,46.4904187 C9.65508291,48.0740992 10.521923,49.4451487 11.6224468,50.5656724 C12.7213916,51.6856698 14.0319149,52.5625099 15.5171746,53.1725085 C16.9998027,53.7819808 18.6340095,54.0909274 20.3734791,54.0909274 C21.9792649,54.0909274 23.4666299,53.8967173 24.7950479,53.5140866 C26.061887,53.1493506 27.2208317,52.5682994 28.240303,51.784617 C28.4850393,51.5967227 28.6329337,51.3088286 28.6329337,51.0004082 L28.6329337,46.3641032 C28.6329337,46.0362092 28.3666185,45.769894 28.0381982,45.769894 L22.032949,45.769894 C21.8618968,45.769894 21.723476,45.630947 21.723476,45.4604211 L21.723476,39.935697 C21.723476,39.7983289 21.8350547,39.6867502 21.9724228,39.6867502 L35.3397603,39.6867502 C35.545023,39.6867502 35.7113384,39.8530656 35.7113384,40.0583283 L35.7113384,55.4861873 C35.7113384,55.7067131 35.6144965,55.917239 35.4439706,56.0567123 C33.5718696,57.5814456 31.3897694,58.7888113 28.951354,59.6477566 C26.3066233,60.5798597 23.2434725,61.0524902 19.8466383,61.0524902" id="Fill-1" fill="#FFFFFF" sketch:type="MSShapeGroup" mask="url(#mask-2)"></path>
                </g>
                <path d="M59.9392823,60.1157029 C59.741388,60.1157029 59.5582305,60.0130716 59.4550729,59.8441246 L49.6019378,43.7362672 C49.4114119,43.4246889 49.055097,43.2610051 48.6814136,43.3278471 C48.4756246,43.3646891 48.2950987,43.4888993 48.1556254,43.6446884 L45.6024734,46.498366 C45.5493156,46.5583659 45.4498421,46.5204712 45.4498421,46.4399451 L45.4498421,37.4520712 C45.4498421,37.391545 45.4708947,37.3331241 45.509842,37.2868084 L58.0545498,22.3236852 C58.1624443,22.1947381 58.3213913,22.1205277 58.4892856,22.1205277 L66.5224249,22.1205277 C66.7276876,22.1205277 66.8371611,22.3626324 66.7013719,22.5168426 L54.5935052,36.2641792 C54.3345584,36.558389 54.3008743,36.9941775 54.5119264,37.3247031 L68.8371564,59.7483354 C68.9382088,59.9072824 68.8245249,60.1157029 68.6355779,60.1157029 L59.9392823,60.1157029 Z" id="Fill-4" fill="#FFFFFF" sketch:type="MSShapeGroup"></path>
                <path d="M85.0603294,30.1189829 L91.9187346,30.1189829 L91.9187346,37.8310703 C90.9934735,38.6315948 89.9124234,39.2505407 88.6761105,39.6863292 C87.4397976,40.1215913 86.0298008,40.3394856 84.4466466,40.3394856 C82.9871763,40.3394856 81.6845477,40.1131703 80.5366557,39.6594871 C79.3892899,39.2052777 78.4150816,38.5694897 77.6145572,37.7510705 C76.8140327,36.9331777 76.2045604,35.9547589 75.7866666,34.8158141 C75.3682466,33.6773957 75.159826,32.4226618 75.159826,31.0531913 C75.159826,29.7184575 75.3819307,28.4821446 75.8266666,27.3437262 C76.2714024,26.2053078 76.9029799,25.2132048 77.721399,24.3679436 C78.5392919,23.5226824 79.5092896,22.8600523 80.6303396,22.3800535 C81.7508634,21.8995282 82.9961236,21.6590025 84.3666468,21.6590025 C85.9850641,21.6590025 87.4040082,21.9568965 88.6229527,22.5526846 C89.841371,23.148999 90.8513686,23.9811024 91.6518931,25.0484683 L88.9297941,27.6368834 C88.3603217,26.9610955 87.7329548,26.4095178 87.0487458,25.9826767 C86.3634843,25.5553093 85.5224336,25.3421519 84.5266464,25.3421519 C83.7082273,25.3421519 82.9787553,25.4932041 82.3382304,25.7953087 C81.6977056,26.0984659 81.154549,26.5074123 80.7103395,27.0226743 C80.2656036,27.5395152 79.9271834,28.1442506 79.6961313,28.8379332 C79.4650792,29.5316158 79.34929,30.2700352 79.34929,31.0531913 C79.34929,31.9068735 79.4824476,32.6810822 79.7498154,33.3747648 C80.0166569,34.0684474 80.3903402,34.660025 80.8703391,35.1494976 C81.3508643,35.6389701 81.9155998,36.016864 82.565072,36.2837055 C83.2145442,36.550547 83.9213847,36.6837045 84.686646,36.6837045 C85.3982233,36.6837045 86.0476955,36.5994942 86.6350626,36.4300209 C87.2219033,36.2610739 87.746639,35.9900219 88.2092695,35.6163386 L88.2092695,33.3747648 L85.0603294,33.3747648 L85.0603294,30.1189829 Z" id="Fill-6" fill="#FFFFFF" sketch:type="MSShapeGroup"></path>
                <path d="M100.036716,30.1455618 C100.784082,30.1455618 101.370923,29.9229307 101.797764,29.4781949 C102.225132,29.0339854 102.438289,28.4734604 102.438289,27.7971462 C102.438289,27.0676742 102.225132,26.4892545 101.797764,26.0624133 C101.370923,25.6355722 100.784082,25.4218885 100.036716,25.4218885 L97.5551426,25.4218885 L97.5551426,30.1455618 L100.036716,30.1455618 Z M93.6319938,22.1129488 L100.249873,22.1129488 C101.281976,22.1129488 102.188816,22.2592643 102.971972,22.5529478 C103.754602,22.8466313 104.408811,23.2471567 104.933547,23.7539976 C105.458282,24.2608386 105.84986,24.8524161 106.107754,25.5287304 C106.365648,26.2050446 106.495122,26.9255692 106.495122,27.6903043 C106.495122,28.8471437 106.241438,29.8560888 105.734071,30.7192447 C105.22723,31.5824006 104.510916,32.2718727 103.586181,32.7876609 L107.535646,39.9129076 L103.105656,39.9129076 L99.79619,33.3745017 L97.5551426,33.3745017 L97.5551426,39.9129076 L93.6319938,39.9129076 L93.6319938,22.1129488 Z" id="Fill-8" fill="#FFFFFF" sketch:type="MSShapeGroup"></path>
                <path d="M108.154539,22.1129488 L120.323458,22.1129488 L120.323458,25.6355722 L112.184003,25.6355722 L112.184003,29.1045116 L118.508726,29.1045116 L118.508726,32.5208194 L112.184003,32.5208194 L112.184003,36.3634421 L120.910825,36.3634421 L120.910825,39.9129076 L108.154539,39.9129076 L108.154539,22.1129488 Z" id="Fill-10" fill="#FFFFFF" sketch:type="MSShapeGroup"></path>
                <path d="M122.100717,22.1129488 L134.269637,22.1129488 L134.269637,25.6355722 L126.130182,25.6355722 L126.130182,29.1045116 L132.454904,29.1045116 L132.454904,32.5208194 L126.130182,32.5208194 L126.130182,36.3634421 L134.857004,36.3634421 L134.857004,39.9129076 L122.100717,39.9129076 L122.100717,22.1129488 Z" id="Fill-12" fill="#FFFFFF" sketch:type="MSShapeGroup"></path>
                <path d="M136.046843,22.1129488 L139.889992,22.1129488 L147.602079,33.6681852 L147.602079,22.1129488 L151.578386,22.1129488 L151.578386,39.9129076 L147.922605,39.9129076 L140.02315,28.1439875 L140.02315,39.9129076 L136.046843,39.9129076 L136.046843,22.1129488 Z" id="Fill-14" fill="#FFFFFF" sketch:type="MSShapeGroup"></path>
                <path d="M75.5636145,42.3158494 L79.5930789,42.3158494 L79.5930789,49.414254 L85.5446441,42.3158494 L90.2146332,42.3158494 L84.1035948,49.2542544 L91.0419998,60.1158082 L86.1583268,60.1158082 L81.4083378,52.3500367 L79.5930789,54.3779267 L79.5930789,60.1158082 L75.5636145,60.1158082 L75.5636145,42.3158494 Z" id="Fill-16" fill="#00AA4E" sketch:type="MSShapeGroup"></path>
                <path d="M91.6556825,42.3158494 L103.824602,42.3158494 L103.824602,45.8384728 L95.6851469,45.8384728 L95.6851469,49.3074122 L102.009869,49.3074122 L102.009869,52.72372 L95.6851469,52.72372 L95.6851469,56.5663427 L104.411969,56.5663427 L104.411969,60.1158082 L91.6556825,60.1158082 L91.6556825,42.3158494 Z" id="Fill-18" fill="#00AA4E" sketch:type="MSShapeGroup"></path>
                <path d="M110.56806,52.6699833 L104.323337,42.3157968 L108.887011,42.3157968 L112.756476,49.040518 L116.519625,42.3157968 L120.895931,42.3157968 L114.651208,52.6436676 L114.651208,60.1157556 L110.56806,60.1157556 L110.56806,52.6699833 Z" id="Fill-20" fill="#00AA4E" sketch:type="MSShapeGroup"></path>
                <path d="M51.3235128,56.5816585 L45.6840521,56.5816585 C45.5429998,56.5816585 45.4287896,56.6958687 45.4287896,56.836921 L45.4287896,59.8605983 C45.4287896,60.0016506 45.5429998,60.1158608 45.6840521,60.1158608 L51.3235128,60.1158608 C51.486144,60.1158608 51.6193015,59.9827032 51.6193015,59.8195457 L51.6193015,56.8774473 C51.6193015,56.7148161 51.486144,56.5816585 51.3235128,56.5816585" id="Fill-22" fill="#00AA4E" sketch:type="MSShapeGroup"></path>
                <path d="M50.3834623,55.7317131 C50.5460935,55.7317131 50.6792511,55.5985555 50.6792511,55.4359243 L50.6792511,52.4932995 C50.6792511,52.3306683 50.5460935,52.1975107 50.3834623,52.1975107 L45.6839995,52.1975107 C45.5429472,52.1975107 45.4287369,52.311721 45.4287369,52.4527733 L45.4287369,55.4764505 C45.4287369,55.6175028 45.5429472,55.7317131 45.6839995,55.7317131 L50.3834623,55.7317131 Z" id="Fill-24" fill="#00AA4E" sketch:type="MSShapeGroup"></path>
                <path d="M45.0338431,30.7639814 L45.0338431,30.493982 C45.0338431,30.3313508 44.9006855,30.1981932 44.7380543,30.1981932 L39.959118,30.1981932 C39.7964868,30.1981932 39.6633292,30.3313508 39.6633292,30.493982 L39.6633292,30.7639814 C39.6633292,30.9266126 39.7964868,31.0597702 39.959118,31.0597702 L44.7380543,31.0597702 C44.9006855,31.0597702 45.0338431,30.9266126 45.0338431,30.7639814" id="Fill-26" fill="#00AA4E" sketch:type="MSShapeGroup"></path>
                <path d="M39.959118,26.3656758 L44.7380543,26.3656758 C44.9006855,26.3656758 45.0338431,26.2325182 45.0338431,26.069887 L45.0338431,25.7998876 C45.0338431,25.6372564 44.9006855,25.5040988 44.7380543,25.5040988 L39.959118,25.5040988 C39.7964868,25.5040988 39.6633292,25.6372564 39.6633292,25.7998876 L39.6633292,26.069887 C39.6633292,26.2325182 39.7964868,26.3656758 39.959118,26.3656758" id="Fill-28" fill="#00AA4E" sketch:type="MSShapeGroup"></path>
                <path d="M41.081747,21.6992656 L43.6154253,21.6992656 C43.7364777,21.6992656 43.8354248,21.6003184 43.8354248,21.4792661 L43.8354248,21.0576881 C43.8354248,20.9366357 43.7364777,20.8376886 43.6154253,20.8376886 L41.081747,20.8376886 C40.9606946,20.8376886 40.8617475,20.9366357 40.8617475,21.0576881 L40.8617475,21.4792661 C40.8617475,21.6003184 40.9606946,21.6992656 41.081747,21.6992656" id="Fill-30" fill="#00AA4E" sketch:type="MSShapeGroup"></path>
                <path d="M46.2786297,29.0523012 L46.2786297,27.5117784 C46.2786297,27.3486209 46.1454721,27.2154633 45.9828409,27.2154633 L38.8012786,27.2154633 C38.6386474,27.2154633 38.5054898,27.3486209 38.5054898,27.5117784 L38.5054898,29.0523012 C38.5054898,29.2149324 38.6386474,29.34809 38.8012786,29.34809 L45.9828409,29.34809 C46.1454721,29.34809 46.2786297,29.2149324 46.2786297,29.0523012" id="Fill-32" fill="#00AA4E" sketch:type="MSShapeGroup"></path>
                <path d="M39.9647496,24.6539956 L42.347902,24.6539956 L42.354744,24.6539956 L44.7378964,24.6539956 C44.9005276,24.6539956 45.0336852,24.520838 45.0336852,24.3582068 C45.0336852,24.3582068 45.0394747,24.1529441 45.0336852,24.0882074 C45.0110537,23.8239975 44.2857922,23.1861042 43.8642142,22.8313682 C43.8457932,22.8161051 43.8352669,22.7934735 43.8352669,22.7692631 C43.8352669,22.6482107 43.7363198,22.5492636 43.6152674,22.5492636 L42.3536914,22.5492636 L42.3489546,22.5492636 L41.0873786,22.5492636 C40.9663262,22.5492636 40.8673791,22.6482107 40.8673791,22.7692631 C40.8673791,22.7934735 40.8568528,22.8161051 40.8384318,22.8313682 C40.4168538,23.1861042 39.6921186,23.8239975 39.6689608,24.0882074 C39.6631713,24.1529441 39.6689608,24.3582068 39.6689608,24.3582068 C39.6689608,24.520838 39.8021184,24.6539956 39.9647496,24.6539956" id="Fill-34" fill="#00AA4E" sketch:type="MSShapeGroup"></path>
                <path d="M44.5795284,36.5279681 L44.5795284,32.2974515 C44.5795284,32.0842941 44.4053182,31.910084 44.1921608,31.910084 L40.5490114,31.910084 C40.335854,31.910084 40.1616439,32.0842941 40.1616439,32.2974515 L40.1605912,36.5279681 C40.1605912,36.6690204 40.2748015,36.7832306 40.4158538,36.7832306 L44.3242658,36.7832306 C44.4653181,36.7832306 44.5795284,36.6690204 44.5795284,36.5279681" id="Fill-36" fill="#00AA4E" sketch:type="MSShapeGroup"></path>
                <path d="M43.7626355,5.38077702 C43.7626355,6.16182784 43.1294791,6.79498427 42.3484283,6.79498427 C41.5673775,6.79498427 40.934221,6.16182784 40.934221,5.38077702 C40.934221,4.59972619 41.5673775,3.96656976 42.3484283,3.96656976 C43.1294791,3.96656976 43.7626355,4.59972619 43.7626355,5.38077702" id="Fill-38" fill="#00AA4E" sketch:type="MSShapeGroup"></path>
                <path d="M47.2812063,3.85667528 C46.1054196,3.83141218 45.23279,3.30351867 44.8464751,2.03246898 C44.8148962,1.92773238 44.7538438,1.83299576 44.6670019,1.76615381 L42.5159542,0.122999715 C42.4080597,0.0440525296 42.2617443,0.0440525296 42.1538498,0.122999715 L40.0033284,1.76615381 C39.9159602,1.83299576 39.8549077,1.92773238 39.8233289,2.03246898 C39.437014,3.30351867 38.5643844,3.83983322 37.3885977,3.86509631 C37.2785979,3.86720157 37.1707034,3.8972015 37.0785984,3.95720136 L36.5391259,4.30562161 C36.0033377,4.63562085 36.3138633,4.76983106 36.5391259,4.73351536 C37.9485964,4.53509476 39.0028044,4.75351531 39.818592,5.30667192 C40.0617494,5.47140839 40.3996433,5.33614554 40.4670116,5.05035673 C40.7038531,4.03825381 41.3180622,3.39772898 42.334902,3.39772898 C43.3512154,3.39772898 43.9659508,4.03878012 44.2033187,5.05035673 C44.2701607,5.33614554 44.6080546,5.47140839 44.851212,5.30667192 C45.6669995,4.75351531 46.7212076,4.52667373 48.130678,4.72509432 C48.3559407,4.76141003 48.729624,4.68983125 48.130678,4.30299004 L47.5912056,3.94878033 C47.4991006,3.88878047 47.3912061,3.85930685 47.2812063,3.85667528" id="Fill-40" fill="#00AA4E" sketch:type="MSShapeGroup"></path>
                <path d="M55.375556,12.0796036 C54.7545048,8.59434852 51.2413551,5.02751468 46.9118914,5.20119848 C44.5529495,5.29067196 43.4971625,7.1885623 43.5492676,10.6248701 C43.6650568,14.9185444 45.5534735,16.1001206 47.9429416,15.9290684 C49.9545159,15.6911742 51.5171439,14.1285462 51.699775,12.4411817 C51.8981956,10.0032926 49.755569,8.15329691 47.9545206,8.79645332 C47.0876805,9.19487345 46.9813649,9.99960843 47.1703118,10.9622378 C47.3645219,11.7480254 47.8266261,12.1217088 48.0182046,12.8822333 C48.2260989,13.7085472 47.9282048,14.548019 47.0566279,14.6311767 C45.857157,14.6753871 45.0734746,13.41539 44.8871592,10.6248701 C44.846633,8.02066564 45.6676837,6.83645786 46.978207,6.49645864 C49.3492542,5.81330233 53.5039814,8.62171688 54.224506,12.1259193 C54.2313481,12.1611824 54.2692428,12.1838139 54.3050322,12.1838139 L55.2887141,12.1832876 C55.3429245,12.1832876 55.3850297,12.1332877 55.375556,12.0796036" id="Fill-42" fill="#00AA4E" sketch:type="MSShapeGroup"></path>
                <path d="M42.9609532,16.6302773 C42.8541113,16.6302773 42.7677957,16.7171192 42.7677957,16.8234347 L42.7677957,19.7944805 C42.7677957,19.9013223 42.8541113,19.9876379 42.9609532,19.9876379 L43.6420042,19.9876379 C43.7488461,19.9876379 43.835688,19.9013223 43.835688,19.7944805 L43.835688,19.4276392 C43.8698984,18.9823771 44.1462136,18.8607984 44.4756865,18.788167 C45.0530536,18.6602726 47.9056786,18.5934306 49.0504128,18.5934306 C52.0709321,18.5934306 55.3772402,16.5592248 55.3767139,13.1455485 C55.3767139,13.086075 55.3314508,13.0355488 55.2719773,13.0355488 L54.3251374,13.0355488 C54.2740849,13.0355488 54.2246113,13.0739697 54.2246113,13.1255486 C54.2246113,15.4671221 51.5977753,17.4771174 49.0504128,17.479749 C47.846205,17.4813279 46.1898931,17.479749 44.387792,17.479749 C44.0583191,17.479749 43.8509511,17.3081705 43.835688,16.9618555 L43.835688,16.8234347 C43.835688,16.7171192 43.7498987,16.6313299 43.6441095,16.6302773 L42.9609532,16.6302773 Z" id="Fill-44" fill="#00AA4E" sketch:type="MSShapeGroup"></path>
                <path d="M29.3208795,12.0796036 C29.9414044,8.59434852 33.4550804,5.02751468 37.7845441,5.20119848 C40.143486,5.29067196 41.199273,7.1885623 41.1471679,10.6248701 C41.0313787,14.9185444 39.142962,16.1001206 36.7534939,15.9290684 C34.7419196,15.6911742 33.1787653,14.1285462 32.9966605,12.4411817 C32.7977135,10.0032926 34.9403402,8.15329691 36.7419149,8.79645332 C37.608755,9.19487345 37.7150706,9.99960843 37.5261236,10.9622378 C37.3319136,11.7480254 36.8698094,12.1217088 36.6782309,12.8822333 C36.4703366,13.7085472 36.7682307,14.548019 37.6398076,14.6311767 C38.8392785,14.6753871 39.6229609,13.41539 39.8092763,10.6248701 C39.8498025,8.02066564 39.0287517,6.83645786 37.7182285,6.49645864 C35.3471813,5.81330233 31.1924541,8.62171688 30.4719295,12.1259193 C30.464561,12.1611824 30.4271927,12.1838139 30.3914033,12.1838139 L29.4077214,12.1832876 C29.353511,12.1832876 29.3114058,12.1332877 29.3208795,12.0796036" id="Fill-46" fill="#00AA4E" sketch:type="MSShapeGroup"></path>
                <path d="M41.7354823,16.6302773 C41.8423242,16.6302773 41.9286398,16.7171192 41.9286398,16.8234347 L41.9286398,19.7944805 C41.9286398,19.9013223 41.8423242,19.9876379 41.7354823,19.9876379 L41.0544313,19.9876379 C40.9475894,19.9876379 40.8607475,19.9013223 40.8607475,19.7944805 L40.8607475,19.4276392 C40.8265371,18.9823771 40.5502219,18.8607984 40.220749,18.788167 C39.6433819,18.6602726 36.7907569,18.5934306 35.6460227,18.5934306 C32.6249771,18.5934306 29.3191953,16.5592248 29.3197216,13.1455485 C29.3197216,13.086075 29.3649846,13.0355488 29.4244582,13.0355488 L30.3707718,13.0355488 C30.4223506,13.0355488 30.4718242,13.0739697 30.4718242,13.1255486 C30.4718242,15.4671221 33.0986602,17.4771174 35.6460227,17.479749 C36.8502305,17.4813279 38.5065424,17.479749 40.3086435,17.479749 C40.6381164,17.479749 40.8454844,17.3081705 40.8607475,16.9618555 L40.8607475,16.8234347 C40.8607475,16.7171192 40.9465368,16.6313299 41.052326,16.6302773 L41.7354823,16.6302773 Z" id="Fill-48" fill="#00AA4E" sketch:type="MSShapeGroup"></path>
                <path d="M44.3243711,37.6330708 L40.4159591,37.6330708 C40.2749068,37.6330708 40.1606965,37.747281 40.1606965,37.8883333 L40.1601702,51.0925133 C40.1601702,51.2335656 40.2743804,51.3477759 40.4149064,51.3477759 L44.3243711,51.3477759 C44.4654234,51.3477759 44.5796336,51.2335656 44.5796336,51.0925133 L44.5796336,37.8883333 C44.5796336,37.747281 44.4654234,37.6330708 44.3243711,37.6330708" id="Fill-50" fill="#00AA4E" sketch:type="MSShapeGroup"></path>
                <path d="M44.5795284,52.4527733 C44.5795284,52.311721 44.4653181,52.1975107 44.3242658,52.1975107 L40.4148012,52.1975107 C40.2742752,52.1975107 40.1600649,52.311721 40.1600649,52.4527733 L40.1595386,59.8195984 C40.1595386,59.9827559 40.2926962,60.1159135 40.4553274,60.1159135 L44.3242658,60.1159135 C44.4653181,60.1159135 44.5795284,60.0017032 44.5795284,59.8606509 L44.5795284,52.4527733 Z" id="Fill-52" fill="#00AA4E" sketch:type="MSShapeGroup"></path>
            </g>
        </g>
    </g>
</svg>