<?xml version="1.0" encoding="UTF-8" standalone="no"?>
<svg width="19px" height="19px" viewBox="0 0 19 19" version="1.1" xmlns="http://www.w3.org/2000/svg" xmlns:xlink="http://www.w3.org/1999/xlink" xmlns:sketch="http://www.bohemiancoding.com/sketch/ns">
    <!-- Generator: sketchtool 3.5.1 (25234) - http://www.bohemiancoding.com/sketch -->
    <title>ic_settings</title>
    <desc>Created with sketchtool.</desc>
    <defs></defs>
    <g id="Page-1" stroke="none" stroke-width="1" fill="none" fill-rule="evenodd" sketch:type="MSPage">
        <g id="TVBWEB--1628-mysymphonyApp" sketch:type="MSArtboardGroup" transform="translate(-1749.000000, -202.000000)" fill="#D4D4D4">
            <g id="Control-Panel" sketch:type="MSLayerGroup" transform="translate(251.000000, 186.000000)">
                <path d="M1510.69648,25.1788504 C1510.69648,24.3342645 1510.39769,23.6131901 1509.8001,23.0156057 C1509.20252,22.4180213 1508.48144,22.1192336 1507.63686,22.1192336 C1506.79227,22.1192336 1506.0712,22.4180213 1505.47361,23.0156057 C1504.87603,23.6131901 1504.57724,24.3342645 1504.57724,25.1788504 C1504.57724,26.0234364 1504.87603,26.7445108 1505.47361,27.3420951 C1506.0712,27.9396795 1506.79227,28.2384673 1507.63686,28.2384673 C1508.48144,28.2384673 1509.20252,27.9396795 1509.8001,27.3420951 C1510.39769,26.7445108 1510.69648,26.0234364 1510.69648,25.1788504 L1510.69648,25.1788504 Z M1516.81571,23.876123 L1516.81571,26.5293844 C1516.81571,26.6249979 1516.78384,26.7166262 1516.7201,26.8042719 C1516.65635,26.8919176 1516.57668,26.9437075 1516.48106,26.959643 L1514.27001,27.2942886 C1514.11862,27.7245494 1513.96325,28.0870785 1513.8039,28.3818868 C1514.08277,28.7802764 1514.50904,29.3300458 1515.08272,30.0312115 C1515.1624,30.126825 1515.20224,30.2264209 1515.20224,30.3300022 C1515.20224,30.4335835 1515.16638,30.5252117 1515.09467,30.6048896 C1514.87954,30.8996979 1514.48514,31.3299523 1513.91146,31.8956655 C1513.33778,32.4613787 1512.9633,32.7442311 1512.78801,32.7442311 C1512.6924,32.7442311 1512.58882,32.7083766 1512.47727,32.6366664 L1510.82794,31.3458906 C1510.47736,31.5291498 1510.11483,31.6805356 1509.74034,31.8000525 C1509.61286,32.8836722 1509.49733,33.6246657 1509.39375,34.0230553 C1509.33797,34.2461535 1509.19455,34.3577009 1508.96349,34.3577009 L1506.31023,34.3577009 C1506.19868,34.3577009 1506.10107,34.3238383 1506.01741,34.2561121 C1505.93375,34.1883858 1505.88794,34.1027333 1505.87997,33.999152 L1505.54532,31.8000525 C1505.1549,31.6725678 1504.79636,31.5251658 1504.46968,31.3578422 L1502.7845,32.6366664 C1502.70482,32.7083766 1502.60522,32.7442311 1502.48571,32.7442311 C1502.37416,32.7442311 1502.27456,32.7004089 1502.18692,32.6127632 C1501.18297,31.7044349 1500.52564,31.0351504 1500.2149,30.6048896 C1500.15912,30.5252117 1500.13124,30.4335835 1500.13124,30.3300022 C1500.13124,30.2343887 1500.16311,30.1427605 1500.22685,30.0551147 C1500.34637,29.8877911 1500.54954,29.622866 1500.83638,29.2603315 C1501.12322,28.8977969 1501.33835,28.6169365 1501.48177,28.4177417 C1501.26664,28.0193521 1501.1033,27.6249523 1500.99175,27.2345305 L1498.80461,26.9118365 C1498.70102,26.8959009 1498.61736,26.846103 1498.55362,26.7624412 C1498.48988,26.6787794 1498.45801,26.5851592 1498.45801,26.4815779 L1498.45801,23.8283165 C1498.45801,23.732703 1498.48988,23.6410747 1498.55362,23.553429 C1498.61736,23.4657833 1498.69306,23.4139934 1498.7807,23.3980578 L1501.0037,23.0634123 C1501.11525,22.6968938 1501.27062,22.3303809 1501.46982,21.9638625 C1501.15111,21.5096983 1500.72484,20.9599289 1500.19099,20.3145378 C1500.11132,20.2189243 1500.07148,20.1233122 1500.07148,20.0276987 C1500.07148,19.9480208 1500.10733,19.8563925 1500.17904,19.7528113 C1500.3862,19.4659707 1500.77861,19.0377083 1501.35628,18.4680112 C1501.93394,17.8983141 1502.31042,17.6134698 1502.48571,17.6134698 C1502.58929,17.6134698 1502.69287,17.6533082 1502.79645,17.7329861 L1504.44577,19.0118103 C1504.79636,18.8285511 1505.15889,18.6771653 1505.53337,18.5576484 C1505.66086,17.4740287 1505.77639,16.7330352 1505.87997,16.3346456 C1505.93574,16.1115474 1506.07916,16 1506.31023,16 L1508.96349,16 C1509.07504,16 1509.17264,16.0338626 1509.2563,16.1015888 C1509.33997,16.1693151 1509.38578,16.2549676 1509.39375,16.3585488 L1509.72839,18.5576484 C1510.11881,18.6851331 1510.47736,18.832535 1510.80404,18.9998587 L1512.50117,17.7210345 C1512.57288,17.6493243 1512.66849,17.6134698 1512.78801,17.6134698 C1512.89159,17.6134698 1512.99119,17.6533082 1513.0868,17.7329861 C1514.11465,18.6811533 1514.77198,19.3584055 1515.05882,19.7647629 C1515.11459,19.8285052 1515.14248,19.9161496 1515.14248,20.0276987 C1515.14248,20.1233122 1515.11061,20.2149404 1515.04687,20.3025861 C1514.92735,20.4699098 1514.72418,20.7348349 1514.43733,21.0973694 C1514.15049,21.459904 1513.93537,21.7407644 1513.79195,21.9399592 C1513.99911,22.3383488 1514.16245,22.7287648 1514.28196,23.1112188 L1516.46911,23.4458644 C1516.57269,23.4617999 1516.65635,23.5115979 1516.7201,23.5952597 C1516.78384,23.6789215 1516.81571,23.7725417 1516.81571,23.876123 L1516.81571,23.876123 Z" id="ic_settings" sketch:type="MSShapeGroup"></path>
            </g>
        </g>
    </g>
</svg>