<?xml version="1.0" encoding="utf-8"?>
<!-- Generator: Adobe Illustrator 16.0.0, SVG Export Plug-In . SVG Version: 6.00 Build 0)  -->
<!DOCTYPE svg PUBLIC "-//W3C//DTD SVG 1.1//EN" "http://www.w3.org/Graphics/SVG/1.1/DTD/svg11.dtd">
<svg version="1.1" id="Слой_1" xmlns="http://www.w3.org/2000/svg" xmlns:xlink="http://www.w3.org/1999/xlink" x="0px" y="0px"
	 width="100px" height="100px" viewBox="0 0 100 100" enable-background="new 0 0 100 100" xml:space="preserve">
<g id="chat_1_">
	<path fill="#FFFFFF" d="M41.395,22.186C19.637,22.186,2,35.936,2,52.908c0,8.323,4.249,15.883,11.144,21.416
		c-0.4,5.641-1.74,12.541-5.617,16.256c7.721,0,15.61-4.902,20.6-8.737c4.146,1.158,8.605,1.788,13.267,1.788
		c21.758,0,39.395-13.746,39.395-30.723C80.789,35.936,63.152,22.186,41.395,22.186 M93.758,55.903
		c3.314-4.495,5.215-9.716,5.215-15.284c0-16.972-17.639-30.722-39.396-30.722c-9.575,0-18.352,2.667-25.175,7.089
		c3.21-0.612,6.569-0.945,10.023-0.945c23.433,0,42.425,15.133,42.425,33.795c0,7.35-2.939,14.167-7.947,19.706
		c4.977,3.834,12.879,8.747,20.602,8.747C94.006,73.004,93.615,61.297,93.758,55.903"/>
	<path fill="#FFFFFF" d="M52.328,50.595H29.38c-2.42,0-4.381-1.961-4.381-4.38s1.961-4.381,4.381-4.381h22.948
		c2.42,0,4.383,1.961,4.383,4.381S54.748,50.595,52.328,50.595z"/>
	<path fill="#FFFFFF" d="M43.947,63.737H29.38c-2.42,0-4.381-1.961-4.381-4.38c0-2.42,1.961-4.382,4.381-4.382h14.566
		c2.419,0,4.381,1.962,4.381,4.382C48.328,61.776,46.366,63.737,43.947,63.737z"/>
</g>
</svg>
