<?xml version="1.0" encoding="utf-8"?>
<!-- Generator: Adobe Illustrator 16.0.0, SVG Export Plug-In . SVG Version: 6.00 Build 0)  -->
<!DOCTYPE svg PUBLIC "-//W3C//DTD SVG 1.1//EN" "http://www.w3.org/Graphics/SVG/1.1/DTD/svg11.dtd">
<svg version="1.1" xmlns="http://www.w3.org/2000/svg" xmlns:xlink="http://www.w3.org/1999/xlink" x="0px" y="0px"
	 width="100px" height="100px" viewBox="0 0 100 100" enable-background="new 0 0 100 100">
<g id="event-log">
	<path fill="#FFFFFF" d="M46.08,75.833H9.471c-3.747,0-6.795-3.048-6.795-6.794V14.064c0-3.747,3.048-6.795,6.795-6.795h67.885
		c3.747,0,6.796,3.048,6.796,6.795v23.709c0,2.359-1.913,4.272-4.271,4.272c-2.36,0-4.273-1.913-4.273-4.272v-21.96H11.22v51.477
		H46.08c2.359,0,4.272,1.913,4.272,4.273C50.352,73.921,48.438,75.833,46.08,75.833z"/>
	<path fill="#FFFFFF" d="M37.01,71.563H6.116V11.54H37.01V71.563z"/>
	<path fill="#FFFFFF" d="M66.676,29.902H45.259c-2.359,0-4.272-1.912-4.272-4.271c0-2.359,1.913-4.272,4.272-4.272h21.417
		c2.359,0,4.271,1.913,4.271,4.272C70.947,27.99,69.035,29.902,66.676,29.902z"/>
	<path fill="#FFFFFF" d="M60.374,42.198H45.259c-2.359,0-4.272-1.912-4.272-4.271c0-2.359,1.913-4.272,4.272-4.272h15.115
		c2.358,0,4.271,1.913,4.271,4.272C64.646,40.287,62.732,42.198,60.374,42.198z"/>
	<path fill="#FFFFFF" d="M73.874,83.995c-10.553,0-19.137-8.585-19.137-19.137s8.584-19.136,19.137-19.136c10.552,0,19.137,8.584,19.137,19.136
		S84.426,83.995,73.874,83.995z M73.874,54.266c-5.841,0-10.593,4.752-10.593,10.593S68.033,75.45,73.874,75.45
		s10.593-4.751,10.593-10.592S79.715,54.266,73.874,54.266z"/>
	<path fill="#FFFFFF" d="M93.73,92.032c-1.214,0-2.419-0.514-3.264-1.514l-9.974-11.801c-1.521-1.801-1.296-4.497,0.506-6.02
		s4.497-1.296,6.02,0.506l9.974,11.801c1.521,1.801,1.295,4.497-0.506,6.019C95.684,91.702,94.705,92.032,93.73,92.032z"/>
</g>
</svg>
