<?xml version="1.0" encoding="UTF-8" standalone="no"?>
<svg width="19px" height="28px" viewBox="0 0 19 28" version="1.1" xmlns="http://www.w3.org/2000/svg" xmlns:xlink="http://www.w3.org/1999/xlink" xmlns:sketch="http://www.bohemiancoding.com/sketch/ns">
    <!-- Generator: sketchtool 3.5.1 (25234) - http://www.bohemiancoding.com/sketch -->
    <title>ic_help</title>
    <desc>Created with sketchtool.</desc>
    <defs></defs>
    <g id="Page-1" stroke="none" stroke-width="1" fill="none" fill-rule="evenodd" sketch:type="MSPage">
        <g id="TVBWEB--1628-mysymphonyApp" sketch:type="MSArtboardGroup" transform="translate(-1866.000000, -196.000000)" fill="#D4D4D4">
            <g id="Control-Panel" sketch:type="MSLayerGroup" transform="translate(251.000000, 186.000000)">
                <path d="M1630.51682,15.2035639 C1630.41485,15.3455498 1630.19138,15.5227654 1629.91041,15.7384133 L1629.60016,15.9487233 C1629.42985,16.0789661 1629.32788,16.2017359 1629.28882,16.321303 C1629.25845,16.4163162 1629.24326,16.4419377 1629.24109,16.6351667 L1629.24001,16.6832071 L1628.05758,16.6832071 L1628.06083,16.5849912 C1628.07493,16.1803846 1628.08578,15.9423179 1628.25609,15.7448186 C1628.52296,15.4362928 1629.11417,15.0615779 1629.13912,15.0455645 C1629.22374,14.9836458 1629.29425,14.912119 1629.3474,14.8352544 C1629.47215,14.6665794 1629.52639,14.5342015 1629.52639,14.4039587 C1629.52639,14.2235405 1629.47215,14.055933 1629.36476,13.9075416 C1629.26062,13.7634205 1629.06427,13.6908262 1628.77897,13.6908262 C1628.49692,13.6908262 1628.30383,13.7783664 1628.18775,13.9598522 C1628.06842,14.1456083 1628.00876,14.3409725 1628.00876,14.5406069 L1628.00876,14.5907824 L1626.78836,14.5907824 L1626.79053,14.5384717 C1626.82199,13.8029204 1627.08885,13.2734088 1627.58352,12.9648829 C1627.89377,12.7684512 1628.27996,12.6681002 1628.73124,12.6681002 C1629.32137,12.6681002 1629.81929,12.8100862 1630.2109,13.0876528 C1630.60902,13.3705571 1630.8108,13.7922448 1630.8108,14.3431076 C1630.8108,14.6516335 1630.711,14.9409432 1630.51682,15.2035639 L1630.51682,15.2035639 Z M1628.69978,18.7521454 L1628.67157,18.7510778 C1628.23982,18.7393346 1627.93499,18.4254709 1627.94801,18.006986 C1627.95994,17.595974 1628.27128,17.2970562 1628.68893,17.2970562 L1628.71388,17.2970562 C1629.15865,17.3098669 1629.45914,17.6205279 1629.4472,18.0507561 C1629.43419,18.4639032 1629.12719,18.7521454 1628.69978,18.7521454 L1628.69978,18.7521454 Z M1628.71496,10.7133912 C1625.91076,10.750756 1623.66848,13.0182611 1623.70536,15.7779131 C1623.74333,18.5364975 1626.04636,20.7431516 1628.85056,20.7068544 C1631.65477,20.6694897 1633.89705,18.4030521 1633.86017,15.6434001 C1633.8222,12.8848157 1631.51809,10.6770941 1628.71496,10.7133912 L1628.71496,10.7133912 Z M1630.27599,24.147612 C1629.32788,23.401385 1628.58587,23.0533593 1627.93716,23.0533593 C1627.12899,23.0533593 1626.61588,23.5711276 1626.07239,24.1198554 C1626.01707,24.1764362 1625.96066,24.2330171 1625.90208,24.2906655 C1625.86954,24.32376 1625.8153,24.3621923 1625.69814,24.3621923 C1625.35426,24.3621923 1624.46798,24.0568691 1622.38625,22.0156874 C1621.48261,21.1296096 1620.82305,20.3759097 1620.42385,19.7748714 C1620.02789,19.1770357 1619.89012,18.7211861 1620.05718,18.5557137 C1620.11468,18.4980653 1620.17217,18.4425519 1620.2275,18.3870386 C1620.72108,17.9044999 1621.18646,17.4475826 1621.27758,16.7824905 C1621.37521,16.0757634 1621.03242,15.2900365 1620.16783,14.2352837 C1619.49851,13.4185975 1618.84004,13.0203962 1618.15553,13.0203962 C1617.22586,13.0203962 1616.50664,13.7740962 1615.92952,14.3783372 C1615.82864,14.4850936 1615.73209,14.5854445 1615.6388,14.6783226 C1614.94236,15.3711714 1614.94019,16.8572199 1615.63337,18.652862 C1616.38514,20.5990305 1617.85938,22.7117389 1619.78707,24.6023941 C1623.21829,27.9662871 1626.4857,29.1608908 1628.24091,29.1608908 C1628.95037,29.1608908 1629.51012,28.9762023 1629.85943,28.6281766 C1629.95381,28.534231 1630.05578,28.4381503 1630.16317,28.3367317 C1630.78585,27.746369 1631.56039,27.0129528 1631.517,26.0638887 C1631.48663,25.4094722 1631.08091,24.7828124 1630.27599,24.147612 Z M1615.69932,37.71295 L1615.69932,32.4893964 L1616.39057,32.4893964 L1616.39057,34.6344027 L1619.10568,34.6344027 L1619.10568,32.4893964 L1619.79693,32.4893964 L1619.79693,37.71295 L1619.10568,37.71295 L1619.10568,35.2508248 L1616.39057,35.2508248 L1616.39057,37.71295 L1615.69932,37.71295 Z M1620.96207,37.71295 L1620.96207,32.4893964 L1624.73899,32.4893964 L1624.73899,33.1058185 L1621.65332,33.1058185 L1621.65332,34.7056654 L1624.54302,34.7056654 L1624.54302,35.3185243 L1621.65332,35.3185243 L1621.65332,37.0965279 L1624.86014,37.0965279 L1624.86014,37.71295 L1620.96207,37.71295 Z M1625.78656,37.71295 L1625.78656,32.4893964 L1626.4778,32.4893964 L1626.4778,37.0965279 L1629.05039,37.0965279 L1629.05039,37.71295 L1625.78656,37.71295 Z M1629.87347,37.71295 L1629.87347,32.4893964 L1631.84388,32.4893964 C1632.1907,32.4893964 1632.45555,32.5060242 1632.63846,32.5392802 C1632.89501,32.5820381 1633.10998,32.6633955 1633.28339,32.7833549 C1633.45679,32.9033143 1633.59635,33.0713738 1633.70206,33.2875383 C1633.80776,33.5037028 1633.86062,33.7412426 1633.86062,34.0001649 C1633.86062,34.4443711 1633.71928,34.820278 1633.4366,35.1278967 C1633.15393,35.4355154 1632.64322,35.5893225 1631.90446,35.5893225 L1630.56472,35.5893225 L1630.56472,37.71295 L1629.87347,37.71295 Z M1630.56472,34.9729004 L1631.91514,34.9729004 C1632.36173,34.9729004 1632.67884,34.8897614 1632.8665,34.723481 C1633.05416,34.5572006 1633.14799,34.3232239 1633.14799,34.0215438 C1633.14799,33.8030038 1633.09276,33.6159412 1632.9823,33.4603502 C1632.87185,33.3047593 1632.72635,33.2020233 1632.54582,33.1521392 C1632.42942,33.1212585 1632.21445,33.1058185 1631.90089,33.1058185 L1630.56472,33.1058185 L1630.56472,34.9729004 Z" id="ic_help" sketch:type="MSShapeGroup"></path>
            </g>
        </g>
    </g>
</svg>