<?xml version="1.0" encoding="UTF-8" standalone="no"?>
<svg width="28px" height="20px" viewBox="0 0 28 20" version="1.1" xmlns="http://www.w3.org/2000/svg" xmlns:xlink="http://www.w3.org/1999/xlink" xmlns:sketch="http://www.bohemiancoding.com/sketch/ns">
    <!-- Generator: sketchtool 3.4 (381) - http://www.bohemiancoding.com/sketch -->
    <title>ic_addcontact</title>
    <desc>Created with sketchtool.</desc>
    <defs></defs>
    <g id="Iteration-5" stroke="none" stroke-width="1" fill="none" fill-rule="evenodd" sketch:type="MSPage">
        <g id="TVBWEB--1472-mainWindow" sketch:type="MSArtboardGroup" transform="translate(-768.000000, -25.000000)" fill="#FFFFFF">
            <g id="Search-Bar" sketch:type="MSLayerGroup" transform="translate(473.882812, 15.000000)">
                <path d="M320.519668,16.9759144 L318.342521,16.9759144 L318.342521,14.7987674 C318.342521,14.025498 317.715702,13.3985139 316.942268,13.3985139 C316.168834,13.3985139 315.542015,14.025498 315.542015,14.7987674 L315.542015,16.9759144 L313.364703,16.9759144 C312.591433,16.9759144 311.964449,17.6028985 311.964449,18.3761678 C311.964449,19.1494372 312.591433,19.7764213 313.364703,19.7764213 L315.542015,19.7764213 L315.542015,21.9535683 C315.542015,22.7268377 316.168834,23.3538217 316.942268,23.3538217 C317.715702,23.3538217 318.342521,22.7268377 318.342521,21.9535683 L318.342521,19.7764213 L320.519668,19.7764213 C321.292938,19.7764213 321.919922,19.1494372 321.919922,18.3761678 C321.919922,17.6028985 321.292938,16.9759144 320.519668,16.9759144 M308.355782,20.6626829 L307.525185,20.4444081 L308.202743,19.9167596 C309.563624,18.8578385 310.343812,17.2630322 310.343812,15.5413795 C310.343812,12.4858617 307.858116,10 304.802763,10 C301.747245,10 299.261383,12.4858617 299.261383,15.5413795 C299.261383,17.2630322 300.041571,18.8578385 301.402618,19.9167596 L302.080176,20.4444081 L301.249413,20.6626829 C299.365826,21.1575489 297.806437,22.0731499 296.739938,23.3099856 C295.585306,24.6494515 295,26.337004 295,28.3255287 L295,28.8175942 C295,29.2526612 295.352534,29.605525 295.787766,29.605525 L313.817429,29.605525 C314.252661,29.605525 314.605196,29.2526612 314.605196,28.8175942 L314.605196,28.3255287 C314.605196,26.337004 314.01989,24.6494515 312.865257,23.3099856 C311.798758,22.0731499 310.2397,21.1577136 308.355782,20.6626829" id="ic_addcontact" sketch:type="MSShapeGroup"></path>
            </g>
        </g>
    </g>
</svg>