<?xml version="1.0" encoding="UTF-8" standalone="no"?>
<svg width="24px" height="19px" viewBox="0 0 24 19" version="1.1" xmlns="http://www.w3.org/2000/svg" xmlns:xlink="http://www.w3.org/1999/xlink">
    <!-- Generator: sketchtool 3.6 (26304) - http://www.bohemiancoding.com/sketch -->
    <title>Fill 1</title>
    <desc>Created with sketchtool.</desc>
    <defs>
        <filter x="-50%" y="-50%" width="200%" height="200%" filterUnits="objectBoundingBox" id="filter-1">
            <feOffset dx="0" dy="-1" in="SourceAlpha" result="shadowOffsetOuter1"></feOffset>
            <feGaussianBlur stdDeviation="0" in="shadowOffsetOuter1" result="shadowBlurOuter1"></feGaussianBlur>
            <feColorMatrix values="0 0 0 0 0   0 0 0 0 0   0 0 0 0 0  0 0 0 0.7 0" in="shadowBlurOuter1" type="matrix" result="shadowMatrixOuter1"></feColorMatrix>
            <feMerge>
                <feMergeNode in="shadowMatrixOuter1"></feMergeNode>
                <feMergeNode in="SourceGraphic"></feMergeNode>
            </feMerge>
        </filter>
    </defs>
    <g id="Page-1" stroke="none" stroke-width="1" fill="none" fill-rule="evenodd" filter="url(#filter-1)">
        <g id="TVBWEB-1857-mainWindow-Settings" transform="translate(-620.000000, -642.000000)" fill="#BFBFBF">
            <g id="Group-2" transform="translate(604.000000, 633.000000)">
                <path d="M30.2356049,11.2783236 C30.122136,11.0198248 29.9606816,10.7895591 29.7560725,10.5939674 C29.355013,10.2109427 28.8295348,10 28.2765751,10 C27.8761597,10 27.4841175,10.1131469 27.1426372,10.3273101 L21.2624347,14.0127423 L19.1159718,14.0127423 C17.9371617,14.0127423 16.9785264,14.9715923 16.9785264,16.1500804 L16.9785264,21.2822683 C16.9785264,22.4607564 17.9371617,23.4196064 19.1159718,23.4196064 L21.2504115,23.4196064 L27.1426372,27.1126604 C27.4843322,27.3268237 27.876267,27.4399705 28.2765751,27.4399705 C28.8295348,27.4399705 29.3551203,27.2289205 29.7560725,26.8460031 C29.9607889,26.6504114 30.122136,26.4201457 30.2357122,26.161647 C30.3548707,25.8899442 30.4153088,25.600636 30.4153088,25.3017736 L30.4153088,12.1381969 C30.4153088,11.8392272 30.354656,11.549919 30.2356049,11.2783236 Z M32.5034806,22.2865166 C32.7138865,22.4969226 32.9895613,22.6021256 33.2655581,22.6021256 C33.5413402,22.6021256 33.8171223,22.4969226 34.0274209,22.2865166 L36.0702911,20.2440759 L38.1130538,22.2865166 C38.3234598,22.4969226 38.5992419,22.6021256 38.8751313,22.6021256 C39.1509135,22.6021256 39.4265882,22.4969226 39.6371015,22.2865166 C40.0579134,21.8657047 40.0579134,21.1833882 39.6371015,20.7625763 L37.5943387,18.7199209 L39.6368868,16.6773728 C40.0579134,16.2566682 40.0579134,15.5742444 39.6368868,15.1534324 C39.2160749,14.7325132 38.5337584,14.7325132 38.1130538,15.1534324 L36.0702911,17.1959805 L34.0274209,15.1534324 C33.606609,14.7325132 32.9243999,14.7325132 32.5034806,15.1534324 C32.0825613,15.5742444 32.0825613,16.2565608 32.5034806,16.6773728 L34.546136,18.7199209 L32.5034806,20.7625763 C32.0825613,21.1833882 32.0825613,21.865812 32.5034806,22.2865166 Z" id="Fill-1"></path>
            </g>
        </g>
    </g>
</svg>