<?xml version="1.0" encoding="utf-8"?>
<!-- Generator: Adobe Illustrator 16.0.0, SVG Export Plug-In . SVG Version: 6.00 Build 0)  -->
<!DOCTYPE svg PUBLIC "-//W3C//DTD SVG 1.1//EN" "http://www.w3.org/Graphics/SVG/1.1/DTD/svg11.dtd">
<svg version="1.1" xmlns="http://www.w3.org/2000/svg" xmlns:xlink="http://www.w3.org/1999/xlink" x="0px" y="0px"
	 width="100px" height="100px" viewBox="0 0 100 100" enable-background="new 0 0 100 100">
<g id="missed">
	<path fill="#FFFFFF" d="M50.014,4.751c-25.087,0-45.424,20.337-45.424,45.424c0,25.087,20.337,45.424,45.424,45.424
		c25.087,0,45.424-20.337,45.424-45.424C95.438,25.088,75.101,4.751,50.014,4.751 M45.164,22.99
		c0.934-1.147,2.688-1.721,5.266-1.721c2.609,0,4.374,0.573,5.29,1.721c0.915,1.147,1.372,3.097,1.372,5.85l-2.366,29.51h-9.424
		l-1.535-29.51C43.767,26.086,44.231,24.137,45.164,22.99 M55.767,76.638c-1.396,1.396-3.313,2.092-5.753,2.092
		c-2.442,0-4.359-0.696-5.753-2.092c-1.396-1.394-2.092-3.138-2.092-5.23c0-2.091,0.696-3.844,2.092-5.255
		c1.394-1.413,3.276-2.119,5.648-2.119c2.51,0,4.462,0.706,5.857,2.119c1.394,1.411,2.092,3.164,2.092,5.255
		C57.858,73.5,57.16,75.244,55.767,76.638"/>
</g>
</svg>
