<?xml version="1.0" encoding="utf-8"?>
<!-- Generator: Adobe Illustrator 16.0.0, SVG Export Plug-In . SVG Version: 6.00 Build 0)  -->
<!DOCTYPE svg PUBLIC "-//W3C//DTD SVG 1.1//EN" "http://www.w3.org/Graphics/SVG/1.1/DTD/svg11.dtd">
<svg xmlns="http://www.w3.org/2000/svg" xmlns:xlink="http://www.w3.org/1999/xlink" version="1.1" x="0px" y="0px" width="100px"  height="100px" viewBox="0 0 100 100" enable-background="new 0 0 100 100" >
<g id="menu">
	<path fill="#FFFFFF" d="M84.239,23.091H16.287c-5.194,0-9.404-4.211-9.404-9.404c0-5.194,4.21-9.404,9.404-9.404h67.953
		c5.193,0,9.404,4.21,9.404,9.404C93.644,18.88,89.433,23.091,84.239,23.091"/>
	<path fill="#FFFFFF" d="M84.239,59.142H16.287c-5.194,0-9.404-4.211-9.404-9.404c0-5.194,4.21-9.404,9.404-9.404h67.953
		c5.193,0,9.404,4.21,9.404,9.404C93.644,54.931,89.433,59.142,84.239,59.142"/>
	<path fill="#FFFFFF" d="M84.239,95.192H16.287c-5.194,0-9.404-4.212-9.404-9.404c0-5.194,4.21-9.405,9.404-9.405h67.953
		c5.193,0,9.404,4.211,9.404,9.405C93.644,90.98,89.433,95.192,84.239,95.192"/>
</g>
</svg>
