<?xml version="1.0" encoding="UTF-8" standalone="no"?>
<svg width="25px" height="25px" viewBox="0 0 25 25" version="1.1" xmlns="http://www.w3.org/2000/svg" xmlns:xlink="http://www.w3.org/1999/xlink" xmlns:sketch="http://www.bohemiancoding.com/sketch/ns">
    <!-- Generator: sketchtool 3.4 (381) - http://www.bohemiancoding.com/sketch -->
    <title>ic_plus</title>
    <desc>Created with sketchtool.</desc>
    <defs></defs>
    <g id="Iteration-5" stroke="none" stroke-width="1" fill="none" fill-rule="evenodd" sketch:type="MSPage">
        <g id="TVBWEB--1161-manageBlasts" sketch:type="MSArtboardGroup" transform="translate(-742.000000, -182.000000)" fill="#FFFFFF">
            <path d="M764.618357,192.401528 L756.031481,192.401528 L756.031481,183.814865 C756.031481,182.812633 755.219275,182 754.216615,182 C753.214596,182 752.40175,182.812633 752.40175,183.814865 L752.40175,192.401528 L743.814874,192.401528 C742.812855,192.401528 742.000009,193.214374 742.000009,194.216393 C742.000009,195.218412 742.812855,196.031259 743.814874,196.031259 L752.40175,196.031259 L752.40175,204.618135 C752.40175,205.620367 753.214596,206.433 754.216615,206.433 C755.219275,206.433 756.031481,205.620367 756.031481,204.618135 L756.031481,196.031259 L764.618357,196.031259 C765.620376,196.031259 766.433222,195.218412 766.433222,194.216393 C766.433222,193.214374 765.620376,192.401528 764.618357,192.401528" id="ic_plus" sketch:type="MSShapeGroup"></path>
        </g>
    </g>
</svg>