<?xml version="1.0" encoding="utf-8"?>
<!-- Generator: Adobe Illustrator 16.0.0, SVG Export Plug-In . SVG Version: 6.00 Build 0)  -->
<!DOCTYPE svg PUBLIC "-//W3C//DTD SVG 1.1//EN" "http://www.w3.org/Graphics/SVG/1.1/DTD/svg11.dtd">
<svg version="1.1" xmlns="http://www.w3.org/2000/svg" xmlns:xlink="http://www.w3.org/1999/xlink" x="0px" y="0px"
	 width="100px" height="100px" viewBox="0 0 100 100" enable-background="new 0 0 100 100">
<g id="phone">
	<path fill="#FFFFFF" d="M36.961,72.691c-1.321-2.311-4.576-4.238-7.235-4.238h-4.85c-6.427-11.188-6.427-25.009,0.005-36.193h4.844
		c2.659,0,5.914-1.927,7.235-4.238l4.876-8.529c1.316-2.305,1.419-6.144,0.235-8.519l-0.508-1.021c-1.19-2.386-4.341-4.331-7-4.331
		h-7.257c-1.289,0-3.55,1.431-3.555,1.436C12.109,18.444,5.529,34.057,5.529,50.347c0,16.245,6.542,31.808,18.119,43.188
		c0.065,0.06,2.37,1.552,3.659,1.557h7.257c2.66,0,5.804-1.95,7-4.325l0.508-1.021c1.185-2.393,1.075-6.22-0.24-8.524L36.961,72.691
		z M83.814,16.807H48.293c-0.219,1.954-0.694,3.871-1.601,5.46l-4.876,8.531c-2.342,4.089-7.421,7.055-12.089,7.055H28.3
		c-3.528,7.934-3.528,17.07,0,25.009h1.426c4.668,0,9.747,2.966,12.089,7.057l4.872,8.529c0.906,1.589,1.38,3.5,1.599,5.461h35.528
		c6.176,0,11.184-5.008,11.184-11.184V27.99C94.998,21.813,89.99,16.807,83.814,16.807 M58.651,74.122
		c-2.315,0-4.194-1.878-4.194-4.194c0-2.314,1.879-4.193,4.194-4.193s4.194,1.879,4.194,4.193
		C62.846,72.244,60.967,74.122,58.651,74.122 M58.651,62.939c-2.315,0-4.194-1.879-4.194-4.195c0-2.314,1.879-4.193,4.194-4.193
		s4.194,1.879,4.194,4.193C62.846,61.061,60.967,62.939,58.651,62.939 M58.651,51.756c-2.315,0-4.194-1.879-4.194-4.195
		c0-2.315,1.879-4.194,4.194-4.194s4.194,1.879,4.194,4.194C62.846,49.877,60.967,51.756,58.651,51.756 M69.835,74.122
		c-2.315,0-4.194-1.878-4.194-4.194c0-2.314,1.879-4.193,4.194-4.193c2.314,0,4.192,1.879,4.192,4.193
		C74.027,72.244,72.149,74.122,69.835,74.122 M69.835,62.939c-2.315,0-4.194-1.879-4.194-4.195c0-2.314,1.879-4.193,4.194-4.193
		c2.314,0,4.192,1.879,4.192,4.193C74.027,61.061,72.149,62.939,69.835,62.939 M69.835,51.756c-2.315,0-4.194-1.879-4.194-4.195
		c0-2.315,1.879-4.194,4.194-4.194c2.314,0,4.192,1.879,4.192,4.194C74.027,49.877,72.149,51.756,69.835,51.756 M81.018,74.122
		c-2.314,0-4.193-1.878-4.193-4.194c0-2.314,1.879-4.193,4.193-4.193c2.316,0,4.195,1.879,4.195,4.193
		C85.213,72.244,83.334,74.122,81.018,74.122 M81.018,62.939c-2.314,0-4.193-1.879-4.193-4.195c0-2.314,1.879-4.193,4.193-4.193
		c2.316,0,4.195,1.879,4.195,4.193C85.213,61.061,83.334,62.939,81.018,62.939 M81.018,51.756c-2.314,0-4.193-1.879-4.193-4.195
		c0-2.315,1.879-4.194,4.193-4.194c2.316,0,4.195,1.879,4.195,4.194C85.213,49.877,83.334,51.756,81.018,51.756 M85.213,36.377
		c0,1.546-1.251,2.796-2.797,2.796H57.254c-1.546,0-2.797-1.25-2.797-2.796v-5.591c0-1.547,1.251-2.796,2.797-2.796h25.162
		c1.546,0,2.797,1.25,2.797,2.796V36.377z"/>
</g>
</svg>
