<?xml version="1.0" encoding="UTF-8" standalone="no"?>
<svg width="33px" height="40px" viewBox="0 0 33 40" version="1.1" xmlns="http://www.w3.org/2000/svg" xmlns:xlink="http://www.w3.org/1999/xlink">
    <!-- Generator: sketchtool 3.6 (26304) - http://www.bohemiancoding.com/sketch -->
    <title>ic_pttmode</title>
    <desc>Created with sketchtool.</desc>
    <defs>
        <filter x="-50%" y="-50%" width="200%" height="200%" filterUnits="objectBoundingBox" id="filter-1">
            <feMorphology radius="1" in="SourceAlpha" operator="dilate" result="shadowSpreadOuter1"></feMorphology>
            <feOffset dx="0" dy="0" in="shadowSpreadOuter1" result="shadowOffsetOuter1"></feOffset>
            <feGaussianBlur stdDeviation="3" in="shadowOffsetOuter1" result="shadowBlurOuter1"></feGaussianBlur>
            <feColorMatrix values="0 0 0 0 0.383637313   0 0 0 0 0.965215774   0 0 0 0 0.180178181  0 0 0 0.7 0" in="shadowBlurOuter1" type="matrix" result="shadowMatrixOuter1"></feColorMatrix>
            <feOffset dx="0" dy="1" in="SourceAlpha" result="shadowOffsetInner1"></feOffset>
            <feGaussianBlur stdDeviation="0" in="shadowOffsetInner1" result="shadowBlurInner1"></feGaussianBlur>
            <feComposite in="shadowBlurInner1" in2="SourceAlpha" operator="arithmetic" k2="-1" k3="1" result="shadowInnerInner1"></feComposite>
            <feColorMatrix values="0 0 0 0 0.14290391   0 0 0 0 0.373883929   0 0 0 0 0.120858747  0 0 0 0.7 0" in="shadowInnerInner1" type="matrix" result="shadowMatrixInner1"></feColorMatrix>
            <feMerge>
                <feMergeNode in="shadowMatrixOuter1"></feMergeNode>
                <feMergeNode in="SourceGraphic"></feMergeNode>
                <feMergeNode in="shadowMatrixInner1"></feMergeNode>
            </feMerge>
        </filter>
    </defs>
    <g id="Page-1" stroke="none" stroke-width="1" fill="none" fill-rule="evenodd" filter="url(#filter-1)">
        <g id="TVBWEB-1857-mainWindow-Settings" transform="translate(-994.000000, -194.000000)" fill="#FFFFFF">
            <g id="Group-2" transform="translate(924.000000, 195.000000)">
                <path d="M92.4555884,25.3304826 C92.2685084,25.3304826 92.0850127,25.2398332 91.9736665,25.0725249 C91.796877,24.806589 91.8690265,24.4476913 92.1348467,24.2709018 C93.952229,23.0619345 95.0373627,21.0395504 95.0373627,18.8611892 C95.0373627,16.6827123 93.952229,14.6603282 92.1348467,13.4513609 C91.8690265,13.2744558 91.796877,12.9156737 91.9736665,12.6497378 C92.1503404,12.3840333 92.5092381,12.3116525 92.7752895,12.4886732 C94.915726,13.9125861 96.1936054,16.2947929 96.1936054,18.8611892 C96.1936054,21.4274698 94.915726,23.8096766 92.7752895,25.2335895 C92.6767777,25.2991484 92.5655471,25.3304826 92.4555884,25.3304826 Z M92.4549063,23.1530464 C92.3119947,23.1530464 92.1687362,23.1003217 92.0569275,22.994063 C91.8254477,22.7742613 91.8159666,22.4083105 92.0358839,22.1768307 C92.8903473,21.2771582 93.3608224,20.0997563 93.3608224,18.8611892 C93.3608224,17.622622 92.8903473,16.4449888 92.0358839,15.545432 C91.8159666,15.3139522 91.8254477,14.9480014 92.0569275,14.7281997 C92.2882917,14.5080511 92.6543581,14.5175323 92.8741599,14.7491277 C93.933625,15.864555 94.5170651,17.3248895 94.5170651,18.8611892 C94.5170651,20.3973732 93.933625,21.8577077 92.8741599,22.9730194 C92.7606168,23.0928061 92.6078772,23.1530464 92.4549063,23.1530464 Z M80.7379013,25.3304826 C80.6279427,25.3304826 80.5167121,25.2991484 80.4182002,25.2335895 C78.2778794,23.8097922 77,21.4274698 77,18.8611892 C77,16.2947929 78.2778794,13.9124705 80.4182002,12.4886732 C80.6843673,12.3117681 81.0431494,12.3841489 81.2198233,12.6497378 C81.3966128,12.9156737 81.3244633,13.2744558 81.0586431,13.4513609 C79.2412608,14.6603282 78.1562427,16.6827123 78.1562427,18.8611892 C78.1562427,21.039666 79.2412608,23.0619345 81.0586431,24.2709018 C81.3244633,24.4476913 81.3966128,24.806589 81.2198233,25.0725249 C81.1084771,25.2398332 80.9249814,25.3304826 80.7379013,25.3304826 Z M80.7385835,23.1530464 C80.5856126,23.1530464 80.432873,23.0928061 80.3193299,22.9730194 C79.2599804,21.8579389 78.6765403,20.3976044 78.6765403,18.8611892 C78.6765403,17.3248895 79.2599804,15.864555 80.3193299,14.7491277 C80.539016,14.5175323 80.9048512,14.5081667 81.1365623,14.7281997 C81.368042,14.9480014 81.3775232,15.3139522 81.1576059,15.545432 C80.3032582,16.4448732 79.832783,17.6225064 79.832783,18.8611892 C79.832783,20.0998719 80.3032582,21.2773895 81.1576059,22.1768307 C81.3775232,22.4083105 81.368042,22.7742613 81.1365623,22.994063 C81.0248692,23.1003217 80.8814951,23.1530464 80.7385835,23.1530464 Z M88.4552778,9 L86.4222563,17.174867 L91.8009817,17.174867 L84.2991635,28.2597656 L86.5754585,20.0335614 L81.1420429,20.0335614 L88.4552778,9 Z" id="ic_pttmode"></path>
            </g>
        </g>
    </g>
</svg>