<?xml version="1.0" encoding="UTF-8" standalone="no"?>
<svg width="17px" height="18px" viewBox="0 0 17 18" version="1.1" xmlns="http://www.w3.org/2000/svg" xmlns:xlink="http://www.w3.org/1999/xlink">
    <!-- Generator: sketchtool 3.6 (26304) - http://www.bohemiancoding.com/sketch -->
    <title>ic_ring copy 2</title>
    <desc>Created with sketchtool.</desc>
    <defs></defs>
    <g id="Page-1" stroke="none" stroke-width="1" fill="none" fill-rule="evenodd">
        <g id="TVBWEB-1968-mainWindow" transform="translate(-172.000000, -541.000000)" fill="#b6b6b6">
            <path d="M185.927426,549.565362 L185.915909,549.565362 C185.470081,549.559012 185.113807,549.19262 185.12005,548.746792 C185.13232,547.867623 184.902625,546.999217 184.455829,546.235542 C183.989658,545.438821 183.311876,544.795375 182.495889,544.374842 C182.099574,544.170549 181.943825,543.683712 182.14801,543.287397 C182.352303,542.891082 182.83914,542.735441 183.235454,542.939626 C184.324298,543.500731 185.228116,544.358481 185.849282,545.4202 C186.444831,546.437897 186.750839,547.596058 186.734479,548.769396 C186.728236,549.211348 186.367979,549.565362 185.927426,549.565362 M188.101787,549.635315 C188.082736,549.635315 188.063576,549.634669 188.044202,549.63327 C187.599451,549.601948 187.264381,549.215966 187.295703,548.771322 C187.385794,547.49164 187.08958,546.227458 186.438922,545.115365 C185.773194,543.977332 184.789834,543.087292 183.595507,542.541578 C183.189935,542.356337 183.011475,541.877358 183.196716,541.471894 C183.382065,541.066322 183.861044,540.888077 184.266401,541.073103 C185.764799,541.757667 186.997982,542.873527 187.83259,544.300132 C188.648039,545.694015 189.019275,547.279383 188.906257,548.884663 C188.876227,549.310147 188.521782,549.635315 188.101787,549.635315 M186.532446,555.430943 C186.552467,554.511518 184.65291,553.552052 184.353037,553.252287 L184.353037,548.840618 C184.353037,545.894411 181.731352,544.390417 180.734214,543.925107 C180.734645,543.911222 180.73529,543.897552 180.73529,543.883667 C180.73529,543.084041 180.075806,542.444469 179.276072,542.444469 C178.476661,542.444469 177.816961,543.064128 177.816961,543.883667 C177.816961,543.894969 177.817607,543.906271 177.817822,543.917572 C176.836399,544.376424 174.179302,545.890967 174.179302,548.840618 L174.179302,553.252287 C173.879321,553.552052 172,554.511518 172,555.430943 L172,555.890655 C172,556.034134 172.116354,556.150488 172.259833,556.150488 L176.793775,556.150488 C177.038216,557.296594 178.058711,558.159295 179.276072,558.159295 C180.493756,558.159295 181.514143,557.296594 181.758691,556.150488 L186.272614,556.150488 C186.415985,556.150488 186.532446,556.034134 186.532446,555.890655 L186.532446,555.430943 Z" id="ic_ring-copy-2"></path>
        </g>
    </g>
</svg>