<?xml version="1.0" encoding="UTF-8" standalone="no"?>
<svg width="17px" height="17px" viewBox="0 0 17 17" version="1.1" xmlns="http://www.w3.org/2000/svg" xmlns:xlink="http://www.w3.org/1999/xlink" xmlns:sketch="http://www.bohemiancoding.com/sketch/ns">
    <!-- Generator: sketchtool 3.5.1 (25234) - http://www.bohemiancoding.com/sketch -->
    <title>ic_ring</title>
    <desc>Created with sketchtool.</desc>
    <defs>
        <filter x="-50%" y="-50%" width="200%" height="200%" filterUnits="objectBoundingBox" id="filter-1">
            <feOffset dx="0" dy="-1" in="SourceAlpha" result="shadowOffsetOuter1"></feOffset>
            <feGaussianBlur stdDeviation="0" in="shadowOffsetOuter1" result="shadowBlurOuter1"></feGaussianBlur>
            <feColorMatrix values="0 0 0 0 0   0 0 0 0 0   0 0 0 0 0  0 0 0 0.7 0" in="shadowBlurOuter1" type="matrix" result="shadowMatrixOuter1"></feColorMatrix>
            <feMerge>
                <feMergeNode in="shadowMatrixOuter1"></feMergeNode>
                <feMergeNode in="SourceGraphic"></feMergeNode>
            </feMerge>
        </filter>
    </defs>
    <g id="Page-1" stroke="none" stroke-width="1" fill="none" fill-rule="evenodd" sketch:type="MSPage">
        <g id="TVBWEB-1744-contactsPopup" sketch:type="MSArtboardGroup" transform="translate(-1228.000000, -413.000000)" filter="url(#filter-1)" fill="#FFFFFF">
            <path d="M1241.4864,421.98663 L1241.47566,421.98663 C1241.05995,421.980709 1240.72775,421.639072 1240.73357,421.223368 C1240.74501,420.403601 1240.53084,419.593871 1240.11423,418.881794 C1239.67956,418.138905 1239.04757,417.538934 1238.28672,417.146815 C1237.91718,416.956326 1237.77195,416.502383 1237.96234,416.132846 C1238.15283,415.763308 1238.60678,415.618183 1238.97631,415.808572 C1239.99159,416.331766 1240.83434,417.13156 1241.41353,418.121543 C1241.96884,419.070477 1242.25418,420.150385 1242.23892,421.244444 C1242.2331,421.656536 1241.89718,421.98663 1241.4864,421.98663 M1243.51384,422.051856 C1243.49608,422.051856 1243.47822,422.051254 1243.46015,422.049949 C1243.04545,422.020744 1242.73302,421.660841 1242.76222,421.246241 C1242.84623,420.053023 1242.57003,418.874257 1241.96333,417.837304 C1241.34259,416.776164 1240.42567,415.94626 1239.31204,415.437419 C1238.93387,415.264694 1238.76747,414.818078 1238.94019,414.440009 C1239.11302,414.061841 1239.55963,413.895639 1239.9376,414.068164 C1241.33476,414.706474 1242.48462,415.746939 1243.26284,417.077153 C1244.02319,418.376857 1244.36934,419.855106 1244.26396,421.351923 C1244.23596,421.748659 1243.90546,422.051856 1243.51384,422.051856 M1242.05054,427.455893 C1242.06921,426.598591 1240.298,425.703953 1240.01838,425.424442 L1240.01838,421.310855 C1240.01838,418.563713 1237.57384,417.161338 1236.64407,416.727468 C1236.64447,416.714521 1236.64508,416.701775 1236.64508,416.688828 C1236.64508,415.943229 1236.03015,415.346871 1235.28445,415.346871 C1234.53906,415.346871 1233.92393,415.924662 1233.92393,416.688828 C1233.92393,416.699366 1233.92453,416.709904 1233.92473,416.720442 C1233.00962,417.14829 1230.53205,418.560501 1230.53205,421.310855 L1230.53205,425.424442 C1230.25234,425.703953 1228.5,426.598591 1228.5,427.455893 L1228.5,427.884545 C1228.5,428.018329 1228.60849,428.126821 1228.74228,428.126821 L1232.96988,428.126821 C1233.1978,429.195489 1234.14934,429.9999 1235.28445,429.9999 C1236.41986,429.9999 1237.3713,429.195489 1237.59933,428.126821 L1241.80826,428.126821 C1241.94195,428.126821 1242.05054,428.018329 1242.05054,427.884545 L1242.05054,427.455893 Z" id="ic_ring" sketch:type="MSShapeGroup"></path>
        </g>
    </g>
</svg>