<?xml version="1.0" encoding="UTF-8" standalone="no"?>
<svg width="16px" height="16px" viewBox="0 0 16 16" version="1.1" xmlns="http://www.w3.org/2000/svg" xmlns:xlink="http://www.w3.org/1999/xlink" xmlns:sketch="http://www.bohemiancoding.com/sketch/ns">
    <!-- Generator: sketchtool 3.4 (381) - http://www.bohemiancoding.com/sketch -->
    <title>Page 1</title>
    <desc>Created with sketchtool.</desc>
    <defs></defs>
    <g id="Iteration-5" stroke="none" stroke-width="1" fill="none" fill-rule="evenodd" sketch:type="MSPage">
        <g id="TVBWEB--880-mainWindow" sketch:type="MSArtboardGroup" transform="translate(-486.000000, -27.000000)" fill="#747474">
            <g id="Search-Bar" sketch:type="MSLayerGroup" transform="translate(473.882812, 15.000000)">
                <path d="M14.5340365,18.244521 C14.5340365,15.6471266 16.6471266,13.5340365 19.244521,13.5340365 C21.8419155,13.5340365 23.9550959,15.6471266 23.9550959,18.244521 C23.9550959,20.8419155 21.8419155,22.9550959 19.244521,22.9550959 C16.6471266,22.9550959 14.5340365,20.8419155 14.5340365,18.244521 M27.1467941,26.1891155 L23.9228811,22.3742375 C24.8964528,21.2726188 25.4891323,19.8268345 25.4891323,18.244521 C25.4891323,14.8013311 22.6878013,12 19.244521,12 C15.8013311,12 13,14.8013311 13,18.244521 C13,21.6878013 15.8013311,24.4891323 19.244521,24.4891323 C20.5537761,24.4891323 21.7696353,24.0833346 22.7745194,23.3920255 L25.9751512,27.1792909 C26.1269306,27.3587731 26.3434102,27.4511763 26.5613336,27.4511763 C26.736304,27.4511763 26.9120865,27.3917098 27.0561055,27.2700697 C27.3796969,26.9965601 27.4203038,26.5126167 27.1467941,26.1891155" id="Page-1" sketch:type="MSShapeGroup"></path>
            </g>
        </g>
    </g>
</svg>