<?xml version="1.0" encoding="UTF-8" standalone="no"?>
<svg width="21px" height="17px" viewBox="0 0 21 17" version="1.1" xmlns="http://www.w3.org/2000/svg" xmlns:xlink="http://www.w3.org/1999/xlink">
    <!-- Generator: sketchtool 3.6 (26304) - http://www.bohemiancoding.com/sketch -->
    <title>ic_ptt</title>
    <desc>Created with sketchtool.</desc>
    <defs></defs>
    <g id="Page-1" stroke="none" stroke-width="1" fill="none" fill-rule="evenodd">
        <g id="TVBWEB-1968-mainWindow" transform="translate(-171.000000, -144.000000)" fill="#B6B6B6">
            <path d="M183.612527,153.656392 L183.612527,151.343712 C183.983141,151.603686 184.215612,152.03234 184.215612,152.500105 C184.215612,152.967765 183.983141,153.396418 183.612527,153.656392 M183.797416,149.689542 C183.736239,149.667895 183.674226,149.655242 183.612527,149.649176 L183.612527,145.962065 C183.612527,145.225333 183.012997,144.625908 182.275952,144.625908 C182.026122,144.625908 181.781102,144.69681 181.568187,144.830562 L175.665546,148.530013 C175.580213,148.583555 175.481599,148.611895 175.380265,148.611895 L173.17603,148.611895 C172.439821,148.611895 171.840919,149.211006 171.840919,149.94732 L171.840919,155.045255 C171.840919,155.781569 172.439821,156.380575 173.17603,156.380575 L175.368239,156.380575 C175.469468,156.380575 175.5685,156.40902 175.654148,156.462667 L181.567559,160.168915 C181.781207,160.30319 182.026226,160.374092 182.275952,160.374092 C183.012997,160.374092 183.612527,159.774667 183.612527,159.03783 L183.612527,155.351451 C183.674226,155.345281 183.736239,155.332105 183.797311,155.310562 C184.985703,154.890484 185.784239,153.761072 185.784239,152.500105 C185.784239,151.239137 184.985703,150.109725 183.797416,149.689542 M190.535121,151.692565 L187.077656,151.692565 C186.644506,151.692565 186.293343,152.043728 186.293343,152.476878 C186.293343,152.910029 186.644506,153.261192 187.077656,153.261192 L190.535121,153.261192 C190.968271,153.261192 191.319434,152.910029 191.319434,152.476878 C191.319434,152.043728 190.968271,151.692565 190.535121,151.692565 M187.248762,154.605098 C186.942462,154.298797 186.445834,154.298797 186.139638,154.605098 C185.833233,154.911399 185.833233,155.408026 186.139638,155.714222 L188.551351,158.125935 C188.704449,158.279137 188.905128,158.355686 189.105913,158.355686 C189.306592,158.355686 189.507377,158.279137 189.660475,158.125935 C189.966775,157.819739 189.966775,157.323111 189.660475,157.016811 L187.248762,154.605098 Z M186.694179,150.578389 C186.894859,150.578389 187.095643,150.50184 187.248741,150.348638 L189.660558,147.936925 C189.966859,147.630729 189.966859,147.133997 189.660558,146.827801 C189.354258,146.521396 188.85763,146.5215 188.55133,146.827801 L186.139617,149.239514 C185.833316,149.54571 185.833316,150.042442 186.139617,150.348638 C186.292715,150.50184 186.493499,150.578389 186.694179,150.578389" id="ic_ptt"></path>
        </g>
    </g>
</svg>