<?xml version="1.0" encoding="utf-8"?>
<!-- Generator: Adobe Illustrator 16.0.0, SVG Export Plug-In . SVG Version: 6.00 Build 0)  -->
<!DOCTYPE svg PUBLIC "-//W3C//DTD SVG 1.1//EN" "http://www.w3.org/Graphics/SVG/1.1/DTD/svg11.dtd">
<svg version="1.1" xmlns="http://www.w3.org/2000/svg" xmlns:xlink="http://www.w3.org/1999/xlink" x="0px" y="0px"
	 width="100px" height="100px" viewBox="0 0 100 100" enable-background="new 0 0 100 100">
<g id="settings">
	<path fill="#FFFFFF" d="M66.316,50.243c0-4.361-1.543-8.086-4.63-11.173c-3.087-3.086-6.811-4.629-11.173-4.629c-4.363,0-8.087,1.543-11.174,4.629
		c-3.086,3.087-4.629,6.812-4.629,11.173c0,4.363,1.543,8.086,4.629,11.172c3.086,3.087,6.811,4.631,11.174,4.631
		c4.362,0,8.086-1.544,11.173-4.631C64.773,58.329,66.316,54.605,66.316,50.243 M97.922,43.515v13.703
		c0,0.494-0.165,0.969-0.493,1.42c-0.329,0.453-0.741,0.722-1.235,0.803l-11.42,1.729c-0.782,2.221-1.584,4.095-2.407,5.616
		c1.439,2.058,3.642,4.897,6.604,8.52c0.413,0.493,0.618,1.008,0.618,1.543c0,0.536-0.187,1.008-0.556,1.42
		c-1.111,1.522-3.148,3.745-6.111,6.668c-2.963,2.921-4.897,4.382-5.803,4.382c-0.494,0-1.029-0.186-1.605-0.556l-8.519-6.667
		c-1.811,0.946-3.684,1.729-5.617,2.346c-0.659,5.597-1.255,9.425-1.79,11.482c-0.289,1.153-1.029,1.729-2.223,1.729H43.661
		c-0.576,0-1.08-0.175-1.512-0.524c-0.433-0.351-0.669-0.793-0.71-1.327L39.71,84.441c-2.017-0.658-3.869-1.42-5.556-2.284
		l-8.704,6.605c-0.411,0.37-0.926,0.556-1.543,0.556c-0.576,0-1.09-0.227-1.543-0.679c-5.186-4.692-8.581-8.148-10.186-10.371
		c-0.288-0.412-0.432-0.884-0.432-1.42c0-0.493,0.164-0.968,0.494-1.42c0.618-0.865,1.667-2.232,3.148-4.105
		c1.481-1.872,2.593-3.322,3.334-4.352c-1.112-2.058-1.955-4.095-2.532-6.111L4.895,59.194c-0.535-0.082-0.967-0.341-1.296-0.771
		c-0.329-0.432-0.494-0.915-0.494-1.451V43.268c0-0.495,0.165-0.967,0.494-1.421c0.329-0.452,0.72-0.719,1.173-0.802l11.481-1.729
		c0.577-1.893,1.379-3.786,2.408-5.679c-1.646-2.346-3.848-5.186-6.605-8.519c-0.411-0.495-0.618-0.988-0.618-1.482
		c0-0.411,0.186-0.885,0.556-1.42c1.07-1.481,3.096-3.693,6.08-6.635s4.929-4.414,5.833-4.414c0.535,0,1.07,0.205,1.605,0.618
		l8.519,6.605c1.811-0.947,3.683-1.729,5.617-2.347c0.659-5.597,1.255-9.423,1.791-11.481c0.288-1.153,1.029-1.729,2.222-1.729
		h13.705c0.575,0,1.081,0.175,1.513,0.525c0.433,0.35,0.668,0.793,0.71,1.327l1.729,11.358c2.017,0.658,3.868,1.42,5.556,2.285
		l8.766-6.606c0.37-0.371,0.863-0.555,1.481-0.555c0.535,0,1.05,0.205,1.543,0.618c5.309,4.897,8.703,8.394,10.186,10.494
		c0.288,0.329,0.433,0.782,0.433,1.358c0,0.494-0.165,0.966-0.494,1.419c-0.617,0.865-1.667,2.233-3.148,4.105
		c-1.481,1.873-2.593,3.324-3.333,4.353c1.069,2.057,1.914,4.073,2.53,6.049l11.297,1.729c0.535,0.082,0.968,0.339,1.297,0.771
		C97.757,42.495,97.922,42.979,97.922,43.515"/>
</g>
</svg>
