<?xml version="1.0" encoding="UTF-8" standalone="no"?>
<svg
   xmlns:dc="http://purl.org/dc/elements/1.1/"
   xmlns:cc="http://creativecommons.org/ns#"
   xmlns:rdf="http://www.w3.org/1999/02/22-rdf-syntax-ns#"
   xmlns:svg="http://www.w3.org/2000/svg"
   xmlns="http://www.w3.org/2000/svg"
   xmlns:sodipodi="http://sodipodi.sourceforge.net/DTD/sodipodi-0.dtd"
   xmlns:inkscape="http://www.inkscape.org/namespaces/inkscape"
   version="1.1"
   x="0px"
   y="0px"
   viewBox="0 0 512 512"
   enable-background="new 0 0 512 512"
   xml:space="preserve"
   id="svg2"
   inkscape:version="0.91 r13725"
   sodipodi:docname="ic-user.svg"><metadata
     id="metadata10"><rdf:RDF><cc:Work
         rdf:about=""><dc:format>image/svg+xml</dc:format><dc:type
           rdf:resource="http://purl.org/dc/dcmitype/StillImage" /></cc:Work></rdf:RDF></metadata><defs
     id="defs8" /><sodipodi:namedview
     pagecolor="#ffffff"
     bordercolor="#666666"
     borderopacity="1"
     objecttolerance="10"
     gridtolerance="10"
     guidetolerance="10"
     inkscape:pageopacity="0"
     inkscape:pageshadow="2"
     inkscape:window-width="640"
     inkscape:window-height="480"
     id="namedview6"
     showgrid="false"
     inkscape:zoom="0.4609375"
     inkscape:cx="256"
     inkscape:cy="256"
     inkscape:window-x="2393"
     inkscape:window-y="210"
     inkscape:window-maximized="0"
     inkscape:current-layer="svg2" /><path
     fill="#000000"
     d="M154.156,380.438l-22.625-22.625l226.281-226.281l22.625,22.625L154.156,380.438z M263.125,316.75  l-63.688,63.688l-22.656,22.656l-22.625,22.625c-12.5,12.5-32.75,12.5-45.25,0l-22.625-22.625c-12.5-12.531-12.5-32.75,0-45.281  l22.625-22.625l22.625-22.625l63.719-63.719c-35.656-16.906-79.5-11-108.969,18.469l-45.25,45.25  c-37.438,37.438-37.438,98.344,0,135.781l22.625,22.625c37.438,37.438,98.344,37.438,135.781,0l45.25-45.25  C274.156,396.25,280.031,352.375,263.125,316.75z M470.969,63.656l-22.625-22.625c-37.438-37.438-98.344-37.438-135.781,0  l-45.25,45.25c-29.469,29.469-35.375,73.313-18.469,108.969l63.719-63.719l22.625-22.625l22.625-22.625  c12.5-12.5,32.75-12.5,45.281,0l22.625,22.625c12.5,12.5,12.469,32.781,0,45.25l-22.625,22.625l-22.656,22.656l-63.719,63.719  c35.656,16.875,79.531,11,109-18.469l45.25-45.25C508.406,162,508.406,101.094,470.969,63.656z"
     id="path4"
     style="fill:#ffffff" /></svg>