<?xml version="1.0" encoding="UTF-8" standalone="no"?>
<svg width="17px" height="11px" viewBox="0 0 17 11" version="1.1" xmlns="http://www.w3.org/2000/svg" xmlns:xlink="http://www.w3.org/1999/xlink" xmlns:sketch="http://www.bohemiancoding.com/sketch/ns">
    <!-- Generator: sketchtool 3.5.1 (25234) - http://www.bohemiancoding.com/sketch -->
    <title>ic_menu</title>
    <desc>Created with sketchtool.</desc>
    <defs>
        <filter x="-50%" y="-50%" width="200%" height="200%" filterUnits="objectBoundingBox" id="filter-1">
            <feOffset dx="0" dy="-1" in="SourceAlpha" result="shadowOffsetOuter1"></feOffset>
            <feGaussianBlur stdDeviation="0" in="shadowOffsetOuter1" result="shadowBlurOuter1"></feGaussianBlur>
            <feColorMatrix values="0 0 0 0 0   0 0 0 0 0   0 0 0 0 0  0 0 0 0.7 0" in="shadowBlurOuter1" type="matrix" result="shadowMatrixOuter1"></feColorMatrix>
            <feMerge>
                <feMergeNode in="shadowMatrixOuter1"></feMergeNode>
                <feMergeNode in="SourceGraphic"></feMergeNode>
            </feMerge>
        </filter>
    </defs>
    <g id="Desktop" stroke="none" stroke-width="1" fill="none" fill-rule="evenodd" sketch:type="MSPage">
        <g id="TVBWEB-1591---Shout" sketch:type="MSArtboardGroup" transform="translate(-11.000000, -12.000000)" filter="url(#filter-1)" fill="#FFFFFF">
            <path d="M11,14 C11,13.4477153 11.4547089,13 11.9999602,13 L27.0000398,13 C27.5523026,13 28,13.4438648 28,14 C28,14.5522847 27.5452911,15 27.0000398,15 L11.9999602,15 C11.4476974,15 11,14.5561352 11,14 Z M11,18 C11,17.4477153 11.4547089,17 11.9999602,17 L27.0000398,17 C27.5523026,17 28,17.4438648 28,18 C28,18.5522847 27.5452911,19 27.0000398,19 L11.9999602,19 C11.4476974,19 11,18.5561352 11,18 Z M11,22 C11,21.4477153 11.4547089,21 11.9999602,21 L27.0000398,21 C27.5523026,21 28,21.4438648 28,22 C28,22.5522847 27.5452911,23 27.0000398,23 L11.9999602,23 C11.4476974,23 11,22.5561352 11,22 Z" id="ic_menu" sketch:type="MSShapeGroup"></path>
        </g>
    </g>
</svg>